<?xml version="1.0" encoding="utf-8"?>
<!-- Generator: Adobe Illustrator 18.1.1, SVG Export Plug-In . SVG Version: 6.00 Build 0)  -->
<svg version="1.1" id="Layer_1" xmlns="http://www.w3.org/2000/svg" xmlns:xlink="http://www.w3.org/1999/xlink" x="0px" y="0px"
	 width="84px" height="84px" viewBox="0 0 60 60" enable-background="new 0 0 60 60" xml:space="preserve">
<g id="XMLID_34_">
	<polygon id="XMLID_79_" fill="#59AEE0" points="6.834,22.901 6.834,47.567 11.501,49.735 29.335,44.982 29.335,50.567 
		34.001,52.733 34.019,9.434 29.353,7.268 29.353,16.742 	"/>
	<polygon id="XMLID_78_" fill="#FFFFFF" points="11.501,25.067 11.501,49.735 34.001,43.735 34.001,52.733 55.167,26.235 
		34.019,9.434 34.019,18.91 	"/>
	<g id="XMLID_62_">
		<path id="XMLID_76_" fill="#59AEE0" d="M20.55,28.104l-0.609,6.256l-2.094,0.568l0.61-6.256l-2.506,0.682l0.161-1.664l7.108-1.934
			l-0.162,1.664L20.55,28.104z"/>
		<path id="XMLID_74_" fill="#59AEE0" d="M28.827,31.942l0.305-3.115l-3.123,0.848l-0.305,3.117l-2.093,0.568l0.772-7.922
			l2.094-0.568l-0.315,3.223l3.123-0.85l0.312-3.221l2.096-0.57l-0.774,7.922L28.827,31.942z"/>
		<path id="XMLID_72_" fill="#59AEE0" d="M32.534,30.932l0.771-7.92l2.094-0.566l-0.771,7.92L32.534,30.932z"/>
		<path id="XMLID_70_" fill="#59AEE0" d="M39.423,29.268c-1.549,0.422-2.678,0.184-3.668-0.391l1.221-1.561
			c0.883,0.523,1.801,0.658,2.76,0.395c0.889-0.24,1.303-0.723,1.352-1.221c0.131-1.348-4.76,0.646-4.486-2.162
			c0.131-1.355,1.555-2.842,3.648-3.41c1.537-0.418,2.672-0.127,3.342,0.559l-1.32,1.381c-0.578-0.445-1.354-0.652-2.191-0.424
			c-0.828,0.225-1.406,0.693-1.453,1.182c-0.121,1.236,4.779-0.49,4.521,2.152C43.007,27.231,41.446,28.719,39.423,29.268z"/>
		<path id="XMLID_68_" fill="#59AEE0" d="M23.653,42.586l-1.965,0.531l-1.054-4.553l-2.092,5.408l-1.881,0.512l-1.735-7.238
			l2.188-0.594l0.952,4.881l2.087-5.707l1.799-0.488l1.055,4.887l2.021-5.725l1.951-0.531L23.653,42.586z"/>
		<path id="XMLID_65_" fill="#59AEE0" d="M31.599,40.424l-0.4-1.467l-2.781,0.756l-0.723,1.771l-1.953,0.531l3.729-8.723
			l2.105-0.574l2.221,7.105L31.599,40.424z M30.239,35.211l-1.227,3.021l1.879-0.512L30.239,35.211z"/>
		<path id="XMLID_63_" fill="#59AEE0" d="M38.499,35.446l-0.311,3.188l-2.094,0.568l0.311-3.188l-2.543-3.918l2.295-0.621
			l1.545,2.68l2.086-3.67l2.189-0.596L38.499,35.446z"/>
	</g>
	<path id="XMLID_35_" fill="#205182" d="M55.634,25.647l-21.148-16.8c-0.025-0.021-0.055-0.032-0.082-0.048
		c-0.023-0.015-0.043-0.033-0.068-0.045l-4.667-2.167c-0.231-0.108-0.503-0.089-0.72,0.048c-0.215,0.138-0.346,0.377-0.346,0.633
		v8.902L6.636,22.176c-0.326,0.09-0.552,0.387-0.552,0.725v24.666c0,0.292,0.17,0.557,0.434,0.68l4.667,2.168
		c0.029,0.014,0.061,0.012,0.092,0.021c0.049,0.016,0.096,0.027,0.148,0.032c0.061,0.007,0.119,0.003,0.18-0.006
		c0.03-0.005,0.061,0.005,0.09-0.003l16.891-4.504v4.611c0,0.292,0.169,0.557,0.434,0.68l4.666,2.166
		c0.009,0.004,0.019,0.003,0.027,0.006c0.014,0.007,0.025,0.018,0.041,0.022c0.081,0.028,0.164,0.042,0.248,0.042
		c0.098,0,0.193-0.026,0.285-0.064c0.021-0.009,0.041-0.018,0.062-0.027c0.018-0.01,0.038-0.015,0.056-0.025
		c0.03-0.02,0.044-0.053,0.07-0.075c0.037-0.031,0.082-0.05,0.113-0.089l21.166-26.499c0.125-0.155,0.182-0.354,0.16-0.553
		C55.89,25.951,55.79,25.771,55.634,25.647z M7.584,23.473l21.966-6.006c0.326-0.09,0.553-0.387,0.553-0.725v-8.3l3.166,1.47v0.486
		v7.94l-21.965,6.006c-0.326,0.089-0.552,0.385-0.552,0.723v23.492l-3.167-1.471V23.473z M33.251,51.558l-3.166-1.47v-4.533
		l3.166-0.844V51.558z M34.751,50.592v-6.857c0-0.232-0.109-0.453-0.293-0.595c-0.133-0.102-0.294-0.155-0.457-0.155
		c-0.064,0-0.13,0.008-0.193,0.025l-21.557,5.748V25.639l21.966-6.006c0.326-0.089,0.552-0.385,0.552-0.723v-7.922l19.344,15.365
		L34.751,50.592z"/>
</g>
</svg>
