<svg xmlns="http://www.w3.org/2000/svg" viewBox="0 0 438.32 21.75"><title>click-to-start</title><g style="isolation:isolate"><g style="mix-blend-mode:multiply"><path d="M1209.69,265v-2.08h10.42V265h-10.42Z" transform="translate(-1206.69 -249.46)" style="fill:#232323"/><path d="M1224.26,265v-2.08h10.42V265h-10.42Z" transform="translate(-1206.69 -249.46)" style="fill:#232323"/><path d="M1238.84,265v-2.08h10.42V265h-10.42Z" transform="translate(-1206.69 -249.46)" style="fill:#232323"/><path d="M1253.41,265v-2.08h10.42V265h-10.42Z" transform="translate(-1206.69 -249.46)" style="fill:#232323"/><path d="M1268,265v-2.08h10.42V265H1268Z" transform="translate(-1206.69 -249.46)" style="fill:#232323"/><path d="M1282.56,265v-2.08H1293V265h-10.42Z" transform="translate(-1206.69 -249.46)" style="fill:#232323"/><path d="M1297.14,265v-2.08h10.42V265h-10.42Z" transform="translate(-1206.69 -249.46)" style="fill:#232323"/><path d="M1311.71,265v-2.08h10.42V265h-10.42Z" transform="translate(-1206.69 -249.46)" style="fill:#232323"/><path d="M1345,267q-0.25,4.17-4.15,4.17h-4.17a4.2,4.2,0,0,1-4.17-4.17v-10.4a4.05,4.05,0,0,1,1.21-2.94,4,4,0,0,1,3-1.24h4.17q3.92,0,4.15,4.17H1343q-0.25-2.1-2.08-2.1h-2.1a2,2,0,0,0-1.46.61,2,2,0,0,0-.61,1.49V267a2,2,0,0,0,.61,1.47,2,2,0,0,0,1.46.63h2.1q1.85,0,2.08-2.1H1345Z" transform="translate(-1206.69 -249.46)" style="fill:#232323"/><path d="M1349.21,271.21V252.46h4.17v16.67h6.25v2.08h-10.42Z" transform="translate(-1206.69 -249.46)" style="fill:#232323"/><path d="M1365.88,271.21V252.46H1370v18.75h-4.15Z" transform="translate(-1206.69 -249.46)" style="fill:#232323"/><path d="M1388.78,267q-0.25,4.17-4.15,4.17h-4.17a4.2,4.2,0,0,1-4.17-4.17v-10.4a4.05,4.05,0,0,1,1.21-2.94,4,4,0,0,1,3-1.24h4.17q3.92,0,4.15,4.17h-2.08q-0.25-2.1-2.08-2.1h-2.1a2,2,0,0,0-1.46.61,2,2,0,0,0-.61,1.49V267a2,2,0,0,0,.61,1.47,2,2,0,0,0,1.46.63h2.1q1.85,0,2.08-2.1h2.08Z" transform="translate(-1206.69 -249.46)" style="fill:#232323"/><path d="M1393,271.21V252.46h4.17v7.65l6.75-7.65h3.67l-8.35,9.38,8.35,9.38h-4.17l-6.25-7.3v7.3H1393Z" transform="translate(-1206.69 -249.46)" style="fill:#232323"/><path d="M1420.06,271.21V254.53h-4.17v-2.08h12.5v2.08h-4.17v16.67h-4.15Z" transform="translate(-1206.69 -249.46)" style="fill:#232323"/><path d="M1434.63,252.46h4.17a4,4,0,0,1,2.92,1.24,4,4,0,0,1,1.23,2.94V267a4,4,0,0,1-1.23,2.94,4,4,0,0,1-2.92,1.24h-4.17a4.2,4.2,0,0,1-4.17-4.17v-10.4A4.2,4.2,0,0,1,1434.63,252.46Zm0,4.17V267a2,2,0,0,0,.61,1.47,2,2,0,0,0,1.46.63,2,2,0,0,0,1.49-.62,2,2,0,0,0,.61-1.47v-10.4a2.09,2.09,0,0,0-2.1-2.1,2,2,0,0,0-1.46.61A2,2,0,0,0,1434.63,256.63Z" transform="translate(-1206.69 -249.46)" style="fill:#232323"/><path d="M1463.81,256.63h-2.08q-0.28-2.1-2-2.1a2.31,2.31,0,0,0-1.65.52,2.08,2.08,0,0,0-.55,1.57,2.24,2.24,0,0,0,.6,1.48l4.43,5a4.37,4.37,0,0,1,1.22,2.95v1a4.2,4.2,0,0,1-4.17,4.17h-2.08a3.69,3.69,0,0,1-4.17-4.17h2.1v0.35a1.48,1.48,0,0,0,.65,1.3,2.45,2.45,0,0,0,1.42.45,2.05,2.05,0,0,0,1.59-.54,2.25,2.25,0,0,0,.49-1.56,2.17,2.17,0,0,0-.6-1.48l-4.42-5a4.31,4.31,0,0,1-1.22-2.95v-1a4.2,4.2,0,0,1,4.17-4.17h2.08Q1463.56,252.46,1463.81,256.63Z" transform="translate(-1206.69 -249.46)" style="fill:#232323"/><path d="M1470.06,271.21V254.53h-4.17v-2.08h12.5v2.08h-4.17v16.67h-4.15Z" transform="translate(-1206.69 -249.46)" style="fill:#232323"/><path d="M1480.46,271.21V256.63a4.2,4.2,0,0,1,4.17-4.17h4.17a4,4,0,0,1,2.92,1.24,4,4,0,0,1,1.23,2.94v14.58h-4.15v-8.33h-4.17v8.33h-4.17Zm4.17-10.42h4.17v-4.15a2.09,2.09,0,0,0-2.1-2.1,2,2,0,0,0-1.46.61,2,2,0,0,0-.61,1.49v4.15Z" transform="translate(-1206.69 -249.46)" style="fill:#232323"/><path d="M1497.13,271.21V252.46h8.35a4,4,0,0,1,2.92,1.24,4,4,0,0,1,1.23,2.94v1.13a4.47,4.47,0,0,1-1,2.69,3.72,3.72,0,0,1-3.2,1.29h2.08a2,2,0,0,1,1.46.61,2,2,0,0,1,.61,1.49v7.38h-4.15V265a2,2,0,0,0-.61-1.46,2,2,0,0,0-1.49-.61h-2.08v8.33h-4.17Zm4.17-10.42h2.08a2,2,0,0,0,1.49-.61,2,2,0,0,0,.61-1.46v-2.08a2.09,2.09,0,0,0-2.1-2.1h-2.08v6.25Z" transform="translate(-1206.69 -249.46)" style="fill:#232323"/><path d="M1515.91,271.21V254.53h-4.17v-2.08h12.5v2.08h-4.17v16.67h-4.15Z" transform="translate(-1206.69 -249.46)" style="fill:#232323"/><path d="M1532.56,265v-2.08H1543V265h-10.42Z" transform="translate(-1206.69 -249.46)" style="fill:#232323"/><path d="M1547.13,265v-2.08h10.42V265h-10.42Z" transform="translate(-1206.69 -249.46)" style="fill:#232323"/><path d="M1561.71,265v-2.08h10.42V265h-10.42Z" transform="translate(-1206.69 -249.46)" style="fill:#232323"/><path d="M1576.28,265v-2.08h10.42V265h-10.42Z" transform="translate(-1206.69 -249.46)" style="fill:#232323"/><path d="M1590.86,265v-2.08h10.42V265h-10.42Z" transform="translate(-1206.69 -249.46)" style="fill:#232323"/><path d="M1605.43,265v-2.08h10.42V265h-10.42Z" transform="translate(-1206.69 -249.46)" style="fill:#232323"/><path d="M1620,265v-2.08h10.42V265H1620Z" transform="translate(-1206.69 -249.46)" style="fill:#232323"/><path d="M1634.58,265v-2.08H1645V265h-10.42Z" transform="translate(-1206.69 -249.46)" style="fill:#232323"/></g><path d="M1206.69,262v-2.08h10.42V262h-10.42Z" transform="translate(-1206.69 -249.46)" style="fill:#fff"/><path d="M1221.26,262v-2.08h10.42V262h-10.42Z" transform="translate(-1206.69 -249.46)" style="fill:#fff"/><path d="M1235.84,262v-2.08h10.42V262h-10.42Z" transform="translate(-1206.69 -249.46)" style="fill:#fff"/><path d="M1250.41,262v-2.08h10.42V262h-10.42Z" transform="translate(-1206.69 -249.46)" style="fill:#fff"/><path d="M1265,262v-2.08h10.42V262H1265Z" transform="translate(-1206.69 -249.46)" style="fill:#fff"/><path d="M1279.56,262v-2.08H1290V262h-10.42Z" transform="translate(-1206.69 -249.46)" style="fill:#fff"/><path d="M1294.14,262v-2.08h10.42V262h-10.42Z" transform="translate(-1206.69 -249.46)" style="fill:#fff"/><path d="M1308.71,262v-2.08h10.42V262h-10.42Z" transform="translate(-1206.69 -249.46)" style="fill:#fff"/><path d="M1342,264q-0.25,4.17-4.15,4.17h-4.17a4.2,4.2,0,0,1-4.17-4.17v-10.4a4.05,4.05,0,0,1,1.21-2.94,4,4,0,0,1,3-1.24h4.17q3.92,0,4.15,4.17H1340q-0.25-2.1-2.08-2.1h-2.1a2,2,0,0,0-1.46.61,2,2,0,0,0-.61,1.49V264a2,2,0,0,0,.61,1.47,2,2,0,0,0,1.46.63h2.1q1.85,0,2.08-2.1H1342Z" transform="translate(-1206.69 -249.46)" style="fill:#fff"/><path d="M1346.21,268.21V249.46h4.17v16.67h6.25v2.08h-10.42Z" transform="translate(-1206.69 -249.46)" style="fill:#fff"/><path d="M1362.88,268.21V249.46H1367v18.75h-4.15Z" transform="translate(-1206.69 -249.46)" style="fill:#fff"/><path d="M1385.78,264q-0.25,4.17-4.15,4.17h-4.17a4.2,4.2,0,0,1-4.17-4.17v-10.4a4.05,4.05,0,0,1,1.21-2.94,4,4,0,0,1,3-1.24h4.17q3.92,0,4.15,4.17h-2.08q-0.25-2.1-2.08-2.1h-2.1a2,2,0,0,0-1.46.61,2,2,0,0,0-.61,1.49V264a2,2,0,0,0,.61,1.47,2,2,0,0,0,1.46.63h2.1q1.85,0,2.08-2.1h2.08Z" transform="translate(-1206.69 -249.46)" style="fill:#fff"/><path d="M1390,268.21V249.46h4.17v7.65l6.75-7.65h3.67l-8.35,9.38,8.35,9.38h-4.17l-6.25-7.3v7.3H1390Z" transform="translate(-1206.69 -249.46)" style="fill:#fff"/><path d="M1417.06,268.21V251.53h-4.17v-2.08h12.5v2.08h-4.17v16.67h-4.15Z" transform="translate(-1206.69 -249.46)" style="fill:#fff"/><path d="M1431.63,249.46h4.17a4,4,0,0,1,2.92,1.24,4,4,0,0,1,1.23,2.94V264a4,4,0,0,1-1.23,2.94,4,4,0,0,1-2.92,1.24h-4.17a4.2,4.2,0,0,1-4.17-4.17v-10.4A4.2,4.2,0,0,1,1431.63,249.46Zm0,4.17V264a2,2,0,0,0,.61,1.47,2,2,0,0,0,1.46.63,2,2,0,0,0,1.49-.62,2,2,0,0,0,.61-1.47v-10.4a2.09,2.09,0,0,0-2.1-2.1,2,2,0,0,0-1.46.61A2,2,0,0,0,1431.63,253.63Z" transform="translate(-1206.69 -249.46)" style="fill:#fff"/><path d="M1460.81,253.63h-2.08q-0.28-2.1-2-2.1a2.31,2.31,0,0,0-1.65.52,2.08,2.08,0,0,0-.55,1.57,2.24,2.24,0,0,0,.6,1.48l4.43,5a4.37,4.37,0,0,1,1.22,2.95v1a4.2,4.2,0,0,1-4.17,4.17h-2.08a3.69,3.69,0,0,1-4.17-4.17h2.1v0.35a1.48,1.48,0,0,0,.65,1.3,2.45,2.45,0,0,0,1.42.45,2.05,2.05,0,0,0,1.59-.54,2.25,2.25,0,0,0,.49-1.56,2.17,2.17,0,0,0-.6-1.48l-4.42-5a4.31,4.31,0,0,1-1.22-2.95v-1a4.2,4.2,0,0,1,4.17-4.17h2.08Q1460.56,249.46,1460.81,253.63Z" transform="translate(-1206.69 -249.46)" style="fill:#fff"/><path d="M1467.06,268.21V251.53h-4.17v-2.08h12.5v2.08h-4.17v16.67h-4.15Z" transform="translate(-1206.69 -249.46)" style="fill:#fff"/><path d="M1477.46,268.21V253.63a4.2,4.2,0,0,1,4.17-4.17h4.17a4,4,0,0,1,2.92,1.24,4,4,0,0,1,1.23,2.94v14.58h-4.15v-8.33h-4.17v8.33h-4.17Zm4.17-10.42h4.17v-4.15a2.09,2.09,0,0,0-2.1-2.1,2,2,0,0,0-1.46.61,2,2,0,0,0-.61,1.49v4.15Z" transform="translate(-1206.69 -249.46)" style="fill:#fff"/><path d="M1494.13,268.21V249.46h8.35a4,4,0,0,1,2.92,1.24,4,4,0,0,1,1.23,2.94v1.13a4.47,4.47,0,0,1-1,2.69,3.72,3.72,0,0,1-3.2,1.29h2.08a2,2,0,0,1,1.46.61,2,2,0,0,1,.61,1.49v7.38h-4.15V262a2,2,0,0,0-.61-1.46,2,2,0,0,0-1.49-.61h-2.08v8.33h-4.17Zm4.17-10.42h2.08a2,2,0,0,0,1.49-.61,2,2,0,0,0,.61-1.46v-2.08a2.09,2.09,0,0,0-2.1-2.1h-2.08v6.25Z" transform="translate(-1206.69 -249.46)" style="fill:#fff"/><path d="M1512.91,268.21V251.53h-4.17v-2.08h12.5v2.08h-4.17v16.67h-4.15Z" transform="translate(-1206.69 -249.46)" style="fill:#fff"/><path d="M1529.56,262v-2.08H1540V262h-10.42Z" transform="translate(-1206.69 -249.46)" style="fill:#fff"/><path d="M1544.13,262v-2.08h10.42V262h-10.42Z" transform="translate(-1206.69 -249.46)" style="fill:#fff"/><path d="M1558.71,262v-2.08h10.42V262h-10.42Z" transform="translate(-1206.69 -249.46)" style="fill:#fff"/><path d="M1573.28,262v-2.08h10.42V262h-10.42Z" transform="translate(-1206.69 -249.46)" style="fill:#fff"/><path d="M1587.86,262v-2.08h10.42V262h-10.42Z" transform="translate(-1206.69 -249.46)" style="fill:#fff"/><path d="M1602.43,262v-2.08h10.42V262h-10.42Z" transform="translate(-1206.69 -249.46)" style="fill:#fff"/><path d="M1617,262v-2.08h10.42V262H1617Z" transform="translate(-1206.69 -249.46)" style="fill:#fff"/><path d="M1631.58,262v-2.08H1642V262h-10.42Z" transform="translate(-1206.69 -249.46)" style="fill:#fff"/></g></svg>