<?xml version="1.0" encoding="utf-8"?>
<!-- Generator: Adobe Illustrator 18.1.1, SVG Export Plug-In . SVG Version: 6.00 Build 0)  -->
<svg version="1.1" id="Layer_1" xmlns="http://www.w3.org/2000/svg" xmlns:xlink="http://www.w3.org/1999/xlink" x="0px" y="0px"
	 width="84px" height="84px" viewBox="0 0 60 60" enable-background="new 0 0 60 60" xml:space="preserve">
<g id="XMLID_33_">
	<path id="XMLID_57_" fill="#FFFFFF" d="M54.362,24.124c0-13.709-10.627-16.446-24.502-16.446c-13.291,0-24.222,2.61-24.222,15.105
		c0,8.687,7.497,13.401,19.817,14.456l-5.727,7.444h8.744l-3.735,7.64l15.534-10.78h-9.252l3.639-4.204
		C46.549,36.549,54.362,31.755,54.362,24.124z"/>
	<g id="XMLID_40_">
		<path id="XMLID_54_" fill="#59AEE0" d="M13.334,24.489h-1.078v-1.315h1.234l0.234-1.812h-1.079v-1.315h1.235l0.364-2.894h1.261
			l-0.363,2.894h1.261l0.351-2.894h1.262l-0.351,2.894h0.962v1.315h-1.131l-0.221,1.812h0.961v1.315h-1.131l-0.352,2.895h-1.261
			l0.351-2.895h-1.248l-0.363,2.895H12.97L13.334,24.489z M14.986,21.362l-0.234,1.812h1.262l0.221-1.812H14.986z"/>
		<path id="XMLID_48_" fill="#59AEE0" d="M21.939,16.948c1.611,0,2.131,1.345,2.131,2.953c0,1.592-0.676,2.747-2.197,2.747
			c-1.599,0-2.145-1.198-2.145-2.806C19.728,18.249,20.418,16.948,21.939,16.948z M21.886,21.551c0.806,0,0.858-1.052,0.858-1.666
			c0-0.569-0.04-1.84-0.806-1.84c-0.833,0-0.885,1.153-0.885,1.826C21.054,20.5,21.054,21.551,21.886,21.551z M26.826,16.831h1.104
			l-5.357,10.873h-1.132L26.826,16.831z M27.497,21.887c1.612,0,2.132,1.273,2.132,2.879c0,1.594-0.676,2.822-2.197,2.822
			c-1.6,0-2.146-1.274-2.146-2.88C25.286,23.116,25.975,21.887,27.497,21.887z M27.445,26.492c0.807,0,0.858-1.14,0.858-1.754
			c0-0.571-0.039-1.755-0.806-1.755c-0.833,0-0.884,1.068-0.884,1.74C26.613,25.352,26.613,26.492,27.445,26.492z"/>
		<path id="XMLID_45_" fill="#59AEE0" d="M36.941,23.188c-0.104,0.395-0.209,0.965,0.117,0.965c0.74,0,1.533-1.125,1.533-2.689
			c0-2.322-1.547-3.596-3.523-3.596c-2.236,0-3.68,1.857-3.68,4.327c0,2.558,1.6,4.267,3.836,4.267c1.092,0,2.119-0.438,2.795-1.198
			h1.093c-0.884,1.505-2.341,2.368-3.966,2.368c-2.77,0-5.006-2.338-5.006-5.467c0-3.083,2.236-5.465,4.941-5.465
			c2.365,0,4.525,1.768,4.525,4.457c0,3.01-2.224,4.239-3.056,4.239c-0.546,0-0.923-0.352-0.949-0.834h-0.025
			c-0.312,0.585-0.858,0.848-1.404,0.848c-1.119,0-2.042-1.14-2.042-2.499c0-1.842,1.118-3.727,2.835-3.727
			c0.559,0,1.223,0.264,1.521,1.023l0.208-0.79h1.065L36.941,23.188z M34.47,24.022c0.936,0,1.6-1.199,1.6-2.207
			c0-0.717-0.442-1.242-1.002-1.242c-0.936,0-1.611,1.184-1.611,2.148C33.457,23.495,33.873,24.022,34.47,24.022z"/>
		<path id="XMLID_41_" fill="#59AEE0" d="M45.66,26.345c-0.741,0.819-1.561,1.243-2.613,1.243c-1.678,0-3.004-1.155-3.004-3.129
			c0-1.461,0.988-2.455,2.08-3.025c-0.494-0.686-0.884-1.314-0.884-2.221c0-1.446,1.183-2.383,2.418-2.383
			c1.404,0,2.549,0.848,2.549,2.5c0,1.213-0.715,2.046-1.651,2.601l1.196,1.651c0.183-0.379,0.286-0.818,0.339-1.242h1.599
			c-0.091,0.936-0.378,1.842-0.898,2.572l1.886,2.471h-2.263L45.66,26.345z M43.097,22.78c-0.649,0.321-1.299,0.877-1.299,1.724
			c0,0.76,0.623,1.374,1.326,1.374c0.662,0,1.131-0.38,1.561-0.92L43.097,22.78z M43.748,18.219c-0.441,0-0.832,0.381-0.832,0.922
			c0,0.656,0.378,1.08,0.729,1.562c0.52-0.379,0.949-0.73,0.949-1.49C44.594,18.672,44.203,18.219,43.748,18.219z"/>
	</g>
	<path id="XMLID_36_" fill="#205182" d="M55.362,24.124C55.362,8.75,42.47,6.677,29.86,6.677c-11.743,0-25.222,1.831-25.222,16.105
		c0,8.416,6.704,13.798,18.931,15.268l-4.633,6.022c-0.232,0.303-0.272,0.711-0.105,1.053c0.168,0.342,0.516,0.558,0.897,0.558
		h7.142l-3.031,6.2c-0.2,0.409-0.099,0.902,0.247,1.198c0.187,0.16,0.418,0.241,0.651,0.241c0.198,0,0.397-0.059,0.57-0.178
		l15.534-10.781c0.359-0.249,0.515-0.703,0.384-1.12c-0.13-0.417-0.517-0.701-0.954-0.701h-7.065l1.936-2.235
		C47.814,37.363,55.362,32.078,55.362,24.124z M29.86,8.677c15.73,0,22.681,3.977,23.431,13.614H6.66
		C6.895,12.765,13.862,8.677,29.86,8.677z M33.902,36.684l-3.639,4.203c-0.257,0.297-0.316,0.715-0.154,1.07
		c0.162,0.356,0.518,0.585,0.91,0.585h6.057l-9.754,6.769l2.049-4.189c0.15-0.309,0.132-0.676-0.051-0.968
		c-0.183-0.293-0.503-0.471-0.848-0.471H21.76l4.488-5.835c0.223-0.289,0.269-0.678,0.123-1.012
		c-0.148-0.336-0.466-0.562-0.83-0.594C17.379,35.543,7.74,32.874,6.73,24.292h46.621c-0.117,6.774-7.104,11.275-18.76,12.05
		C34.326,36.359,34.078,36.483,33.902,36.684z"/>
</g>
</svg>
