<?xml version="1.0" encoding="utf-8"?>
<!-- Generator: Adobe Illustrator 18.1.1, SVG Export Plug-In . SVG Version: 6.00 Build 0)  -->
<svg version="1.1" id="Layer_1" xmlns="http://www.w3.org/2000/svg" xmlns:xlink="http://www.w3.org/1999/xlink" x="0px" y="0px"
	 width="84px" height="84px" viewBox="0 0 60 60" enable-background="new 0 0 60 60" xml:space="preserve">
<g id="XMLID_2_">
	<circle id="XMLID_32_" fill="#FFFFFF" cx="30" cy="29.999" r="23.415"/>
	<path id="XMLID_31_" fill="#59AEE0" d="M34.788,52.923c10.635-2.211,18.627-11.633,18.627-22.924
		c0-12.932-10.482-23.414-23.414-23.414c-1.625,0-3.209,0.165-4.738,0.479c-5.603,2.185-7.524,7.983-7.228,11.56
		c0.718,8.645,7.001,11.125,11.786,11.575c5.006,0.47,11.795,3.481,11.795,11.556C41.616,46.413,39.911,50.874,34.788,52.923z"/>
	<path id="XMLID_30_" fill="#FFFFFF" d="M33.056,13.418c-1.09,0-2.051,0.55-2.623,1.388c-0.572-0.838-1.533-1.388-2.623-1.388
		c-1.756,0-3.18,1.423-3.18,3.179c0,4.247,5.803,7.02,5.803,7.02s5.801-2.772,5.801-7.02C36.234,14.841,34.812,13.418,33.056,13.418
		z"/>
	<path id="XMLID_29_" fill="#57AFE5" d="M31.79,37.243c-1.092,0-2.053,0.551-2.625,1.388c-0.572-0.837-1.531-1.388-2.623-1.388
		c-1.756,0-3.178,1.424-3.178,3.178c0,4.248,5.801,7.021,5.801,7.021s5.803-2.773,5.803-7.021
		C34.968,38.667,33.544,37.243,31.79,37.243z"/>
	<g id="XMLID_3_">
		<path id="XMLID_25_" fill="#205182" d="M30.001,5.585c-13.463,0-24.417,10.952-24.417,24.414
			c0,13.463,10.953,24.416,24.417,24.416c13.461,0,24.414-10.953,24.414-24.416C54.415,16.537,43.462,5.585,30.001,5.585z
			 M24.396,8.294c1.792-0.463,3.67-0.709,5.605-0.709c12.359,0,22.414,10.055,22.414,22.414c0,8.848-5.153,16.512-12.615,20.155
			c1.686-2.14,2.566-4.964,2.566-8.4c0-8.215-6.721-11.762-12.475-12.303c-3.841-0.36-10.392-2.256-11.109-10.89
			C18.548,15.732,19.913,10.698,24.396,8.294z M7.585,29.999c0-8.854,5.162-16.524,12.633-20.164
			c-2.359,2.879-3.124,6.52-2.93,8.852c0.838,10.086,8.996,11.934,12.463,12.26c1.856,0.174,11.115,1.515,11.115,10.809
			c0,3.342-0.949,7.649-5.234,9.942c-1.8,0.468-3.688,0.718-5.631,0.718C17.64,52.415,7.585,42.359,7.585,29.999z"/>
		<path id="XMLID_22_" fill="#205182" d="M30.109,24.294c0.103,0.049,0.213,0.072,0.324,0.072c0.109,0,0.221-0.023,0.322-0.072
			c0.255-0.122,6.228-3.031,6.228-7.697c0-2.166-1.762-3.929-3.928-3.929c-0.98,0-1.91,0.365-2.623,1.007
			c-0.714-0.642-1.645-1.007-2.623-1.007c-2.167,0-3.93,1.763-3.93,3.929C23.88,21.263,29.855,24.172,30.109,24.294z M27.81,14.168
			c0.801,0,1.549,0.397,2.004,1.061c0.279,0.409,0.959,0.409,1.238,0c0.453-0.664,1.203-1.061,2.004-1.061
			c1.339,0,2.428,1.089,2.428,2.429c0,3.18-3.891,5.541-5.052,6.175c-1.163-0.632-5.052-2.985-5.052-6.175
			C25.38,15.257,26.47,14.168,27.81,14.168z"/>
		<path id="XMLID_19_" fill="#205182" d="M35.718,40.421c0-2.165-1.763-3.928-3.928-3.928c-0.98,0-1.911,0.366-2.625,1.008
			c-0.713-0.642-1.645-1.008-2.623-1.008c-2.166,0-3.928,1.763-3.928,3.928c0,4.668,5.973,7.577,6.227,7.699
			c0.103,0.049,0.213,0.072,0.324,0.072c0.109,0,0.221-0.023,0.322-0.072C29.742,47.998,35.718,45.089,35.718,40.421z
			 M29.164,46.597c-1.163-0.631-5.05-2.984-5.05-6.176c0-1.338,1.088-2.428,2.428-2.428c0.801,0,1.549,0.396,2.004,1.061
			c0.139,0.205,0.371,0.327,0.618,0.327h0.001c0.247,0,0.478-0.122,0.618-0.326c0.455-0.665,1.205-1.062,2.007-1.062
			c1.338,0,2.428,1.09,2.428,2.428C34.218,43.603,30.326,45.964,29.164,46.597z"/>
	</g>
</g>
</svg>
