<svg xmlns="http://www.w3.org/2000/svg" viewBox="0 0 27.83 31.83"><title>mcb-game-art</title><polygon points="14.27 0 5 0 5 7 19.14 5.13 14.27 0" style="fill:#55575b"/><path d="M19.14,26.13L7,26H7a2,2,0,0,0-2,2L6,40a5.22,5.22,0,0,0,5.06,4h5.64a5.36,5.36,0,0,0,5.36-5.28L22.19,31Z" transform="translate(0 -21)" style="fill:#55575b"/><line x1="13.92" y1="17.92" x2="5.37" y2="9.37" style="fill:none;stroke:#8c5b1f;stroke-miterlimit:10;stroke-width:2px"/><line x1="13.92" y1="17.92" x2="1.83" y2="17.92" style="fill:none;stroke:#8c5b1f;stroke-miterlimit:10;stroke-width:2px"/><line x1="13.92" y1="17.92" x2="5.37" y2="26.46" style="fill:none;stroke:#8c5b1f;stroke-miterlimit:10;stroke-width:2px"/><line x1="13.92" y1="17.92" x2="13.92" y2="30" style="fill:none;stroke:#8c5b1f;stroke-miterlimit:10;stroke-width:2px"/><line x1="13.92" y1="17.92" x2="22.46" y2="26.46" style="fill:none;stroke:#8c5b1f;stroke-miterlimit:10;stroke-width:2px"/><line x1="13.92" y1="17.92" x2="26" y2="17.92" style="fill:none;stroke:#8c5b1f;stroke-miterlimit:10;stroke-width:2px"/><line x1="13.92" y1="17.92" x2="22.46" y2="9.37" style="fill:none;stroke:#8c5b1f;stroke-miterlimit:10;stroke-width:2px"/><line x1="13.92" y1="17.92" x2="13.92" y2="5.83" style="fill:none;stroke:#8c5b1f;stroke-miterlimit:10;stroke-width:2px"/><path d="M13.92,28A10.92,10.92,0,1,1,3,38.92,10.93,10.93,0,0,1,13.92,28m0-3A13.92,13.92,0,1,0,27.83,38.92,13.92,13.92,0,0,0,13.92,25h0Z" transform="translate(0 -21)" style="fill:#b57d33"/><circle cx="13.92" cy="17.92" r="2.68" style="fill:#e5a04c"/></svg>