<svg xmlns="http://www.w3.org/2000/svg" xmlns:xlink="http://www.w3.org/1999/xlink" viewBox="0 0 600 400.41"><defs><pattern id="a" width="256" height="238.93" patternTransform="translate(95 76.97) scale(0.4)" patternUnits="userSpaceOnUse" viewBox="0 0 256 238.93"><rect width="256" height="238.93" style="fill:none"/><rect width="256" height="238.93" style="fill:#bcbcbc"/><g style="opacity:0.30000000000000004;mix-blend-mode:multiply"><rect x="2" y="4" width="124" height="56" rx="5" ry="5" style="fill:#eae6e4"/></g><rect x="2" y="2" width="124" height="56" rx="5" ry="5" style="fill:#eae6e4"/><g style="opacity:0.30000000000000004;mix-blend-mode:multiply"><rect x="64.5" y="63.85" width="127" height="56" rx="5" ry="5" style="fill:#eae6e4"/></g><rect x="64.5" y="61.85" width="127" height="56" rx="5" ry="5" style="fill:#eae6e4"/><g style="opacity:0.30000000000000004;mix-blend-mode:multiply"><path d="M196,69.26v45.47a5.26,5.26,0,0,0,5.26,5.26H256V64H201.26A5.26,5.26,0,0,0,196,69.26Z" style="fill:#bcb5af"/></g><path d="M196,67.26v45.47a5.26,5.26,0,0,0,5.26,5.26H256V62H201.26A5.26,5.26,0,0,0,196,67.26Z" style="fill:#dbdbdb"/><g style="opacity:0.30000000000000004;mix-blend-mode:multiply"><path d="M54.62,119.85H0v-56H54.62A5.38,5.38,0,0,1,60,69.23v45.24A5.38,5.38,0,0,1,54.62,119.85Z" style="fill:#bcb5af"/></g><path d="M54.62,117.85H0v-56H54.62A5.38,5.38,0,0,1,60,67.23v45.24A5.38,5.38,0,0,1,54.62,117.85Z" style="fill:#dbdbdb"/><g style="opacity:0.30000000000000004;mix-blend-mode:multiply"><rect x="130" y="4" width="124" height="56" rx="5" ry="5" style="fill:#bcb5af"/></g><rect x="130" y="2" width="124" height="56" rx="5" ry="5" style="fill:#dbdbdb"/><g style="opacity:0.30000000000000004;mix-blend-mode:multiply"><rect x="2" y="123" width="124" height="56" rx="5" ry="5" style="fill:#d8d5d2"/></g><rect x="2" y="121" width="124" height="56" rx="5" ry="5" style="fill:#d8d5d2"/><g style="opacity:0.30000000000000004;mix-blend-mode:multiply"><rect x="64.5" y="182.85" width="127" height="56" rx="5" ry="5" style="fill:#f4eeea"/></g><rect x="64.5" y="180.85" width="127" height="56" rx="5" ry="5" style="fill:#f4eeea"/><g style="opacity:0.30000000000000004;mix-blend-mode:multiply"><path d="M256,238.85H201a5,5,0,0,1-5-5V187.8a5,5,0,0,1,5-5h55v56Z" style="fill:#e5dfda"/></g><path d="M256,236.85H201a5,5,0,0,1-5-5V185.8a5,5,0,0,1,5-5h55v56Z" style="fill:#e5dfda"/><g style="opacity:0.30000000000000004;mix-blend-mode:multiply"><path d="M55.06,238.15H0v-56H55.06A4.94,4.94,0,0,1,60,187.09v46.11A4.94,4.94,0,0,1,55.06,238.15Z" style="fill:#e5dfda"/></g><path d="M55.06,236.15H0v-56H55.06A4.94,4.94,0,0,1,60,185.09v46.11A4.94,4.94,0,0,1,55.06,236.15Z" style="fill:#e5dfda"/><g style="opacity:0.30000000000000004;mix-blend-mode:multiply"><rect x="130" y="123" width="124" height="56" rx="5" ry="5" style="fill:#bcb5af"/></g><rect x="130" y="121" width="124" height="56" rx="5" ry="5" style="fill:#dbdbdb"/></pattern><linearGradient id="c" x1="107.3" y1="142.24" x2="107.3" y2="0.82" gradientUnits="userSpaceOnUse"><stop offset="0" stop-color="#a2002c"/><stop offset="1" stop-color="#691212"/></linearGradient></defs><title>mcb-level-art</title><g style="isolation:isolate"><rect width="600" height="400.41" style="fill:url(#a)"/><rect width="600" height="400.41" style="fill:url(#a)"/><rect width="600" height="400.41" style="fill:#333;opacity:0.3;mix-blend-mode:multiply"/><g style="opacity:0.5;mix-blend-mode:multiply"><polygon points="149.41 113.45 108.3 153.45 67.19 113.45 67.19 2.82 149.41 2.82 149.41 113.45" style="fill:#777"/><polygon points="144.74 111.72 108.3 147.24 71.85 111.72 71.85 2.82 144.74 2.82 144.74 111.72" style="fill:#777"/><polygon points="142.74 110.72 108.3 144.24 73.85 110.72 73.85 2.82 142.74 2.82 142.74 110.72" style="fill:#777"/><path d="M128,70a0.94,0.94,0,0,0-.75-0.38,0.91,0.91,0,0,0-.43.11,39.36,39.36,0,0,1-37,0,0.9,0.9,0,0,0-.43-0.11,0.94,0.94,0,0,0-.75.38,0.92,0.92,0,0,0,.18,1.28,32.55,32.55,0,0,0,19.52,6.49h0a32.55,32.55,0,0,0,19.52-6.5A0.92,0.92,0,0,0,128,70Z" transform="translate(0)" style="fill:#777"/><path d="M121.65,78.56a0.74,0.74,0,0,0-.71-0.1,36.44,36.44,0,0,1-4.71,1.42,0.93,0.93,0,0,0-.65.57c-1.08,3-3.84,5.78-6.73,8.73a0.76,0.76,0,0,1-.54.26,0.75,0.75,0,0,1-.54-0.26c-2.89-3-5.65-5.76-6.73-8.72a0.93,0.93,0,0,0-.65-0.56,36.54,36.54,0,0,1-4.71-1.44,0.75,0.75,0,0,0-.26,0,0.73,0.73,0,0,0-.45.15,0.74,0.74,0,0,0-.29.65,15.55,15.55,0,0,0,3,7.39,54.29,54.29,0,0,0,5.88,6.69c3.83,3.91,7.45,7.6,7.77,11.89a0.74,0.74,0,0,0,.74.69h4.5a0.74,0.74,0,0,0,.74-0.78A17,17,0,0,0,114,96.31c-0.43-.64-0.9-1.26-1.39-1.86a0.54,0.54,0,0,1,0-.71l0.45-.46A54.34,54.34,0,0,0,119,86.6a15.5,15.5,0,0,0,3-7.37A0.76,0.76,0,0,0,121.65,78.56Z" transform="translate(0)" style="fill:#777"/><path d="M103.47,96.62a0.69,0.69,0,0,0-.53-0.23,0.74,0.74,0,0,0-.61.35,16.56,16.56,0,0,0-3,8.34,0.74,0.74,0,0,0,.74.78h4.5a0.75,0.75,0,0,0,.74-0.69,10,10,0,0,1,1.26-4,1,1,0,0,0-.09-1.12A41.63,41.63,0,0,0,103.47,96.62Z" transform="translate(0)" style="fill:#777"/><path d="M108.3,80.77c1.41,0,2.23-.08,2.52-0.08a0.69,0.69,0,0,1,.68.69,0.73,0.73,0,0,1-.05.27,12,12,0,0,1-2.63,3.85,0.72,0.72,0,0,1-.52.21h0a0.72,0.72,0,0,1-.52-0.21,12,12,0,0,1-2.63-3.85,0.73,0.73,0,0,1-.06-0.27,0.69,0.69,0,0,1,.68-0.69c0.29,0,1.11.08,2.52,0.08h0Z" transform="translate(0)" style="fill:#777"/></g><polygon points="148.41 111.45 107.3 151.45 66.19 111.45 66.19 0.82 148.41 0.82 148.41 111.45" style="fill:#d6b4b2"/><polygon points="143.74 109.72 107.3 145.24 70.85 109.72 70.85 0.82 143.74 0.82 143.74 109.72" style="fill:#fcbd00"/><polygon points="141.74 108.72 107.3 142.24 72.85 108.72 72.85 0.82 141.74 0.82 141.74 108.72" style="fill:url(#c)"/><path d="M127,68a0.94,0.94,0,0,0-.75-0.38,0.91,0.91,0,0,0-.43.11,39.36,39.36,0,0,1-37,0,0.9,0.9,0,0,0-.43-0.11,0.94,0.94,0,0,0-.75.38,0.92,0.92,0,0,0,.18,1.28,32.55,32.55,0,0,0,19.52,6.49h0a32.55,32.55,0,0,0,19.52-6.5A0.92,0.92,0,0,0,127,68Z" transform="translate(0)" style="fill:#d6b4b2"/><path d="M120.65,76.56a0.74,0.74,0,0,0-.71-0.1,36.44,36.44,0,0,1-4.71,1.42,0.93,0.93,0,0,0-.65.57c-1.08,3-3.84,5.78-6.73,8.73a0.76,0.76,0,0,1-.54.26,0.75,0.75,0,0,1-.54-0.26c-2.89-3-5.65-5.76-6.73-8.72a0.93,0.93,0,0,0-.65-0.56,36.54,36.54,0,0,1-4.71-1.44,0.75,0.75,0,0,0-.26,0,0.73,0.73,0,0,0-.45.15,0.74,0.74,0,0,0-.29.65,15.55,15.55,0,0,0,3,7.39,54.29,54.29,0,0,0,5.88,6.69c3.83,3.91,7.45,7.6,7.77,11.89a0.74,0.74,0,0,0,.74.69h4.5a0.74,0.74,0,0,0,.74-0.78A17,17,0,0,0,113,94.31c-0.43-.64-0.9-1.26-1.39-1.86a0.54,0.54,0,0,1,0-.71l0.45-.46A54.34,54.34,0,0,0,118,84.6a15.5,15.5,0,0,0,3-7.37A0.76,0.76,0,0,0,120.65,76.56Z" transform="translate(0)" style="fill:#d6b4b2"/><path d="M102.47,94.62a0.69,0.69,0,0,0-.53-0.23,0.74,0.74,0,0,0-.61.35,16.56,16.56,0,0,0-3,8.34,0.74,0.74,0,0,0,.74.78h4.5a0.75,0.75,0,0,0,.74-0.69,10,10,0,0,1,1.26-4,1,1,0,0,0-.09-1.12A41.63,41.63,0,0,0,102.47,94.62Z" transform="translate(0)" style="fill:#d6b4b2"/><path d="M107.3,78.77c1.41,0,2.23-.08,2.52-0.08a0.69,0.69,0,0,1,.68.69,0.73,0.73,0,0,1-.05.27,12,12,0,0,1-2.63,3.85,0.72,0.72,0,0,1-.52.21h0a0.72,0.72,0,0,1-.52-0.21,12,12,0,0,1-2.63-3.85,0.73,0.73,0,0,1-.06-0.27,0.69,0.69,0,0,1,.68-0.69c0.29,0,1.11.08,2.52,0.08h0Z" transform="translate(0)" style="fill:#d6b4b2"/></g></svg>