<svg xmlns="http://www.w3.org/2000/svg" xmlns:xlink="http://www.w3.org/1999/xlink" viewBox="0 0 60.5 42.22"><defs><clipPath id="a" transform="translate(-0.5 -5.28)"><path d="M4.78,25c-2.1,1-1.87,12,.59,12H28l1.46-1,29.25-1c2.05,0,2.12-8,0-8.24L29.58,26,28.2,25H4.78Z" style="fill:none"/></clipPath></defs><title>mcb-rotate</title><path d="M16.17,24.27s2.51-2.37,4.63-2.34c0,0,.89-0.75.74-1.21A3.32,3.32,0,0,0,22,19.42,1.73,1.73,0,0,0,21.65,19a1.27,1.27,0,0,0,.81-0.24,1.75,1.75,0,0,0-.34-0.8H23a1.26,1.26,0,0,0,.5-0.84c-0.09-.34-1-2.37-1.06-2.59s0.56-.87.44-1.25,0.19-2-.87-3.31-1.9-3.23-3.28-3.84a8.57,8.57,0,0,0-4.16-.53,5.55,5.55,0,0,0-4.78,3.5,8.53,8.53,0,0,0-.72,5.22s-0.63,2.84-1.16,4.34Z" transform="translate(-0.5 -5.28)" style="fill:#f2d6b3"/><path d="M17.71,23.06c0.9-.69,2.79-0.63,3.42-1.44a3.57,3.57,0,0,0,.75-2.06c0-.37-1.56-0.62-1.56-0.62a1.26,1.26,0,0,1,.53-0.87c0.47-.28,1.06,1,1.28.78a1.28,1.28,0,0,0,.19-0.78,2.38,2.38,0,0,0-1.69-.56c-0.84.16-1.22,1.59-1.22,1.59a4.58,4.58,0,0,1-2.19-2.47,5.92,5.92,0,0,1,.49-3.51s-3.11,2.2-3.36,2.88,0.12,2.36.44,3.79" transform="translate(-0.5 -5.28)" style="fill:#38210e"/><path d="M9.56,12.34a20.91,20.91,0,0,1-1.5,3.07,30.14,30.14,0,0,0-1.28,2.8,2.51,2.51,0,0,0,.5-0.47c0.38-.41,2.5,2.44,2.5,2.44s2.41,1.22,2.81.66,1.94-2.06,1.94-2.06L15,16.09l0.65-3,0.66-2.86-6,1Z" transform="translate(-0.5 -5.28)" style="fill:#6b4424"/><path d="M19,10.59a17.39,17.39,0,0,1-2.33,4c-1.22,1.34.43,2.66,0.43,2.66A2.41,2.41,0,0,1,15,16.09c-0.75-1.28-1.28-.53-1.06-1.59a8,8,0,0,1,.76-2l0.23-.41-0.72.59L14.37,12l-0.81.25,1.3-2.81L19,8.94v1.66Z" transform="translate(-0.5 -5.28)" style="fill:#936b47"/><path d="M8.69,14s7.69-4.37,9.78-3.75l4,2.13s3.75,0.53,4.28-1.56L22.59,9.41a13.69,13.69,0,0,0-2.94-3.12c-1.31-.78-5.28-1.34-6.59-0.75S8.16,7.94,8.69,14Z" transform="translate(-0.5 -5.28)" style="fill:#2061d3"/><ellipse cx="21" cy="8.94" rx="0.38" ry="0.63" style="fill:#0c1328"/><path d="M21.88,13.25l0.31-.47a19.23,19.23,0,0,0-2.5-.87,1.38,1.38,0,0,0,.47.67" transform="translate(-0.5 -5.28)" style="fill:#38210e"/><path d="M4.78,25c-2.1,1-1.87,12,.59,12H28l1.46-1,29.25-1c2.05,0,2.12-8,0-8.24L29.58,26,28.2,25H4.78Z" transform="translate(-0.5 -5.28)" style="fill:#55575b"/><g style="clip-path:url(#a)"><polygon points="0.58 27.63 27.29 28.26 28.98 28.7 60.5 28.22 60.5 34.72 0 42.22 0.58 27.63" style="fill:#34373a"/></g><path d="M7.42,22.17s-0.75-3.58,1.83-5.25" transform="translate(-0.5 -5.28)" style="fill:none;stroke:#dd3e31;stroke-miterlimit:10"/><circle cx="7.42" cy="22.17" r="0.75" transform="translate(-4.88 -3.29) rotate(-11.82)" style="fill:#dd3e31"/><circle cx="9.25" cy="16.92" r="0.75" transform="translate(-8.19 2.43) rotate(-32.83)" style="fill:#dd3e31"/><path d="M9.42,22.17s-0.75-3.58,1.83-5.25" transform="translate(-0.5 -5.28)" style="fill:none;stroke:#dd3e31;stroke-miterlimit:10"/><circle cx="9.42" cy="22.17" r="0.75" transform="translate(-4.84 -2.88) rotate(-11.82)" style="fill:#dd3e31"/><circle cx="11.25" cy="16.92" r="0.75" transform="translate(-7.87 3.52) rotate(-32.83)" style="fill:#dd3e31"/><polygon points="13.77 15.72 4.5 15.72 4.5 22.72 18.64 20.84 13.77 15.72" style="fill:#55575b"/></svg>