<svg xmlns="http://www.w3.org/2000/svg" viewBox="0 0 30 30"><title>mcb-cage</title><path d="M499.48,96.89A1.55,1.55,0,0,1,501,98.44v22.9a1.55,1.55,0,0,1-1.55,1.55h-22.9a1.55,1.55,0,0,1-1.55-1.55V98.44a1.55,1.55,0,0,1,1.55-1.55h22.9m0-2h-22.9A3.55,3.55,0,0,0,473,98.44v22.9a3.55,3.55,0,0,0,3.55,3.55h22.9a3.55,3.55,0,0,0,3.55-3.55V98.44a3.55,3.55,0,0,0-3.55-3.55h0Z" transform="translate(-473.03 -94.89)" style="fill:#55575b"/><line y1="15" x2="30" y2="15" style="fill:none;stroke:#55575b;stroke-miterlimit:10"/><line x1="9.58" y1="28.55" x2="9.58" y2="0.97" style="fill:none;stroke:#55575b;stroke-miterlimit:10"/><line x1="19.93" y1="28.55" x2="19.93" y2="0.97" style="fill:none;stroke:#55575b;stroke-miterlimit:10"/></svg>