<?xml version="1.0" encoding="utf-8"?>
<!-- Generator: Adobe Illustrator 18.1.1, SVG Export Plug-In . SVG Version: 6.00 Build 0)  -->
<svg version="1.1" id="Layer_1" xmlns="http://www.w3.org/2000/svg" xmlns:xlink="http://www.w3.org/1999/xlink" x="0px" y="0px"
	 width="84px" height="84px" viewBox="0 0 60 60" enable-background="new 0 0 60 60" xml:space="preserve">
<g id="XMLID_1_">
	<path id="XMLID_16_" fill="#59AEE0" d="M30.002,54.5c-13.51,0-24.5-10.991-24.5-24.501s10.991-24.5,24.5-24.5
		C43.511,5.5,54.501,16.49,54.501,30S43.511,54.5,30.002,54.5z M30.002,7.5c-12.407,0-22.5,10.093-22.5,22.5
		S17.595,52.5,30.002,52.5S52.501,42.406,52.501,30S42.409,7.5,30.002,7.5z"/>
	<path id="XMLID_15_" fill="#FFFFFF" d="M54.056,11.416c-1.059,3.646-6.102,7.18-12.525,7.688
		c-2.318-1.837-6.607-1.938-11.531-1.938c-4.923,0-9.212,0.101-11.53,1.938c-6.424-0.509-11.468-4.042-12.526-7.688
		c0,0-0.81,12.21,10.915,14.981c0.75,5.6,3.412,11.989,7.042,15.647c0.372,0.93,1.228,1.675,2.386,2.173
		c-0.062,0.447-0.098,0.945-0.098,1.512c0,1.415,1.707,2.562,3.812,2.562c2.105,0,3.812-1.147,3.812-2.562
		c0-0.566-0.035-1.064-0.098-1.512c1.158-0.498,2.014-1.243,2.387-2.173c3.629-3.658,6.291-10.046,7.041-15.647
		C54.867,23.626,54.056,11.416,54.056,11.416z"/>
	<g id="XMLID_5_">
		<path id="XMLID_14_" fill="#205182" d="M39.986,25.452c-0.175-0.014-0.346,0.045-0.475,0.164
			c-0.019,0.019-2.048,1.876-4.103,2.737c-0.231,0.098-0.383,0.324-0.384,0.576c0,0.251,0.15,0.479,0.382,0.577
			c0.046,0.02,1.136,0.477,2.298,0.669c0.111,0.018,0.248,0.03,0.403,0.03c1.319,0,2.739-0.711,2.739-2.27
			c0-1.542-0.293-2.083-0.42-2.244C40.32,25.552,40.16,25.466,39.986,25.452z"/>
		<path id="XMLID_13_" fill="#205182" d="M24.591,28.352c-2.055-0.861-4.083-2.718-4.103-2.737
			c-0.128-0.119-0.299-0.176-0.474-0.164c-0.174,0.014-0.335,0.101-0.442,0.238c-0.126,0.161-0.42,0.703-0.42,2.244
			c0,1.559,1.42,2.27,2.74,2.27c0.155,0,0.293-0.012,0.403-0.03c1.163-0.192,2.252-0.65,2.298-0.669
			c0.231-0.098,0.382-0.325,0.381-0.577C24.974,28.677,24.823,28.45,24.591,28.352z"/>
		<path id="XMLID_6_" fill="#205182" d="M54.805,11.366c-0.024-0.363-0.306-0.657-0.667-0.696c-0.361-0.039-0.7,0.187-0.802,0.537
			c-0.929,3.197-5.437,6.542-11.58,7.11C39.08,16.429,34.496,16.416,30,16.416c-4.5,0-9.087,0.013-11.764,1.907
			c-6.141-0.571-10.644-3.92-11.573-7.116c-0.101-0.35-0.437-0.575-0.801-0.537C5.5,10.71,5.219,11.003,5.195,11.366
			c-0.009,0.131-0.678,12.517,10.993,15.628c0.848,5.489,3.447,11.734,7.072,15.465c0.405,0.894,1.19,1.642,2.233,2.195
			c-0.034,0.338-0.054,0.692-0.054,1.074c0,1.857,2.004,3.312,4.562,3.312c2.558,0,4.562-1.455,4.562-3.312
			c0-0.382-0.02-0.735-0.055-1.072c1.053-0.558,1.842-1.313,2.244-2.219c3.617-3.732,6.213-9.963,7.061-15.443
			C55.484,23.884,54.814,11.498,54.805,11.366z M6.885,14.557c2.035,2.385,5.606,4.42,10.026,5.103
			c-0.643,0.938-1.022,2.133-1.022,3.694c0,0.647,0.04,1.325,0.103,2.016C9.388,23.34,7.433,18.006,6.885,14.557z M30,47.541
			c-1.631,0-3.062-0.848-3.062-1.812c0-0.172,0.006-0.33,0.013-0.488c0.912,0.269,1.934,0.426,3.05,0.426
			c1.116,0,2.138-0.158,3.05-0.426c0.006,0.158,0.012,0.316,0.012,0.488C33.062,46.694,31.631,47.541,30,47.541z M30,44.166
			c-3.171,0-5.562-1.37-5.562-3.188c0-1.932,2.547-3.562,5.562-3.562c3.015,0,5.562,1.631,5.562,3.562
			C35.562,42.796,33.171,44.166,30,44.166z M36.926,39.996c-0.64-2.322-3.501-4.08-6.926-4.08c-3.425,0-6.286,1.757-6.926,4.08
			c-3.421-4.432-5.684-11.414-5.684-16.643c0-5.072,4.764-5.438,12.61-5.438c7.846,0,12.611,0.366,12.611,5.438
			C42.611,28.582,40.347,35.565,36.926,39.996z M44.007,25.375c0.063-0.693,0.104-1.372,0.104-2.021
			c0-1.567-0.382-2.766-1.029-3.705c4.428-0.682,8.008-2.712,10.041-5.101C52.583,17.997,50.639,23.343,44.007,25.375z"/>
	</g>
	<path id="XMLID_4_" fill="#59AEE0" d="M31.416,30L52.521,8.894c0.391-0.391,0.391-1.023,0-1.414c-0.391-0.391-1.023-0.391-1.414,0
		L30.001,28.586L8.896,7.48c-0.391-0.391-1.023-0.391-1.414,0c-0.391,0.391-0.391,1.023,0,1.414L28.587,30L7.482,51.106
		c-0.391,0.391-0.391,1.023,0,1.414c0.195,0.195,0.451,0.293,0.707,0.293c0.256,0,0.512-0.098,0.707-0.293l21.105-21.105
		L51.107,52.52c0.195,0.195,0.451,0.293,0.707,0.293c0.256,0,0.512-0.098,0.707-0.293c0.391-0.391,0.391-1.023,0-1.414L31.416,30z"
		/>
</g>
</svg>
