<?xml version="1.0" encoding="utf-8"?>
<!-- Generator: Adobe Illustrator 18.1.1, SVG Export Plug-In . SVG Version: 6.00 Build 0)  -->
<svg version="1.1" id="Layer_1" xmlns="http://www.w3.org/2000/svg" xmlns:xlink="http://www.w3.org/1999/xlink" x="0px" y="0px"
	 width="84px" height="84px" viewBox="0 0 60 60" enable-background="new 0 0 60 60" xml:space="preserve">
<g id="XMLID_160_">
	<path id="XMLID_175_" fill="#59AEE0" d="M36.838,10.907c2.418,1.75,17.168,7.416,17.168,7.416c0.523,3.149-2.096,9.125-4.5,11.168
		c-4.168-2.5-8.084-2.584-8.084-2.584s0.084,19,0.584,22.084c-8.658,2.562-21.418,0.131-26.417-2.5c1.083-10,0.5-21.418,0.5-21.418
		l-7.417,1.5c0,0-4-4-2.333-12.25c5.833-0.332,15.249-2.916,17-4.416C25.838,16.907,35.506,15.157,36.838,10.907z"/>
	<path id="XMLID_174_" fill="#FFFFFF" d="M28.838,20.782l4.918,0.242l-1.584,15.467l-6.334-0.244l1-8.34l-3.5-0.242l0.084-3.887
		C23.422,23.778,28.338,23.858,28.838,20.782z"/>
	<g id="XMLID_161_">
		<path id="XMLID_165_" fill="#205182" d="M54.745,18.2c-0.044-0.262-0.223-0.482-0.471-0.577
			c-5.07-1.947-15.147-5.984-16.996-7.323c-0.012-0.009-0.026-0.008-0.038-0.016c-0.082-0.053-0.172-0.093-0.27-0.11
			c-0.017-0.004-0.033-0.003-0.051-0.005c-0.073-0.009-0.148-0.012-0.225,0.002c-2.321,0.451-4.262,0.671-5.932,0.671
			c-3.041,0-5.03-0.736-7.133-1.625c-0.019-0.008-0.038-0.004-0.057-0.01c-0.016-0.006-0.027-0.02-0.043-0.024
			c-0.033-0.009-0.066,0.002-0.099-0.002c-0.066-0.009-0.129-0.013-0.194-0.004c-0.053,0.008-0.099,0.023-0.149,0.04
			c-0.033,0.012-0.068,0.011-0.1,0.027c-0.025,0.014-0.042,0.04-0.066,0.057C22.9,9.316,22.871,9.319,22.85,9.338
			c-1.588,1.361-10.907,3.915-16.554,4.236c-0.341,0.02-0.625,0.267-0.693,0.601c-1.726,8.546,2.363,12.754,2.538,12.929
			c0.178,0.179,0.434,0.255,0.679,0.205l6.556-1.326c0.107,2.85,0.36,12.181-0.533,20.428c-0.033,0.307,0.124,0.602,0.397,0.745
			c3.469,1.825,10.833,3.674,18.196,3.673c3.321,0,6.275-0.376,8.783-1.118c0.361-0.106,0.588-0.466,0.527-0.839
			c-0.427-2.631-0.547-17.477-0.57-21.147c1.299,0.157,4.062,0.682,6.943,2.411c0.275,0.165,0.627,0.137,0.872-0.072
			C52.51,27.922,55.321,21.666,54.745,18.2z M8.95,25.752c-0.793-0.993-3.072-4.48-1.982-10.72C7.369,15,7.792,14.956,8.223,14.905
			c-0.483,3.911,0.445,8.162,1.8,10.629L8.95,25.752z M11.579,25.22c-1.41-2.189-2.417-6.576-1.812-10.523
			c0.396-0.061,0.797-0.126,1.204-0.197c0.01,3.127,0.483,7.731,1.795,10.481L11.579,25.22z M33.435,49.328
			c-6.811,0.001-13.578-1.611-17.047-3.274c0.034-0.333,0.066-0.667,0.096-1.002c4.084,1.273,9.746,2.65,17.06,2.65
			c2.344,0,4.865-0.151,7.546-0.483c0.028,0.467,0.06,0.884,0.093,1.224C38.947,49.03,36.345,49.328,33.435,49.328z M16.612,43.522
			c0.046-0.611,0.087-1.223,0.124-1.832c4.065,1.251,9.644,2.572,16.809,2.572c2.299,0,4.77-0.146,7.393-0.465
			c0.023,0.681,0.048,1.325,0.074,1.92C29.987,47.1,21.881,45.19,16.612,43.522z M41.437,26.157
			c-0.204,0.002-0.397,0.073-0.542,0.215c-0.144,0.143-0.226,0.336-0.224,0.538c0.002,0.523,0.042,8.958,0.221,15.383
			c-10.82,1.337-18.82-0.498-24.074-2.146c0.376-7.885,0.024-15.022,0.019-15.112c-0.011-0.218-0.117-0.421-0.289-0.555
			c-0.173-0.134-0.394-0.185-0.608-0.143l-1.652,0.334c-1.199-2.19-1.844-6.796-1.816-10.453c4.172-0.835,8.491-2.114,10.52-3.2
			c1.331,2.749,3.978,4.362,7.246,4.362h0.001c3.046,0,5.792-1.381,6.937-3.387c2.158,1.201,6.975,3.216,10.863,4.783
			c-0.528,3.342-2.133,7.332-3.916,9.765C42.566,26.191,41.521,26.159,41.437,26.157z M45.674,26.959
			c1.734-2.564,3.209-6.303,3.789-9.611c0.409,0.163,0.795,0.316,1.164,0.462c-0.541,3.662-1.83,6.942-3.755,9.57
			C46.459,27.221,46.057,27.079,45.674,26.959z M49.398,28.563c-0.375-0.21-0.745-0.397-1.111-0.572
			c1.897-2.69,3.183-5.98,3.768-9.619c0.531,0.207,0.965,0.376,1.258,0.489C53.504,21.683,51.373,26.528,49.398,28.563z"/>
		<path id="XMLID_162_" fill="#205182" d="M33.791,20.286l-4.918-0.242c-0.383-0.035-0.705,0.248-0.766,0.62
			c-0.381,2.344-4.461,2.375-4.674,2.375h-0.001c-0.003,0-0.007,0-0.011,0c-0.4,0-0.73,0.321-0.74,0.724l-0.084,3.887
			c-0.008,0.395,0.295,0.726,0.688,0.753l2.725,0.188l-0.907,7.568c-0.025,0.205,0.037,0.411,0.172,0.567
			c0.134,0.157,0.327,0.251,0.533,0.259l6.334,0.244c0.01,0.001,0.02,0.001,0.029,0.001c0.377,0,0.696-0.285,0.734-0.664L34.49,21.1
			c0.021-0.202-0.042-0.403-0.174-0.557C34.184,20.389,33.994,20.296,33.791,20.286z M31.507,35.726l-4.84-0.187l0.904-7.544
			c0.024-0.201-0.035-0.403-0.164-0.56c-0.13-0.155-0.317-0.252-0.518-0.266l-2.797-0.193l0.054-2.488
			c1.411-0.109,4.417-0.617,5.255-2.938l3.54,0.175L31.507,35.726z"/>
	</g>
</g>
</svg>
