<svg xmlns="http://www.w3.org/2000/svg" viewBox="0 0 448.75 21.75"><title>press enter to start</title><g style="isolation:isolate"><g style="mix-blend-mode:multiply"><path d="M1204.73,226v-2.08h10.42V226h-10.42Z" transform="translate(-1201.73 -210.46)" style="fill:#232323"/><path d="M1219.31,226v-2.08h10.42V226h-10.42Z" transform="translate(-1201.73 -210.46)" style="fill:#232323"/><path d="M1233.88,226v-2.08h10.42V226h-10.42Z" transform="translate(-1201.73 -210.46)" style="fill:#232323"/><path d="M1248.46,226v-2.08h10.42V226h-10.42Z" transform="translate(-1201.73 -210.46)" style="fill:#232323"/><path d="M1263,226v-2.08h10.42V226H1263Z" transform="translate(-1201.73 -210.46)" style="fill:#232323"/><path d="M1277.61,232.21V213.46H1286a4,4,0,0,1,2.92,1.24,4,4,0,0,1,1.23,2.94v2.08a4,4,0,0,1-1.23,2.94,4,4,0,0,1-2.92,1.24h-4.17v8.33h-4.17Zm4.17-10.42h2.08a2,2,0,0,0,1.49-.61,2,2,0,0,0,.61-1.46v-2.08a2.09,2.09,0,0,0-2.1-2.1h-2.08v6.25Z" transform="translate(-1201.73 -210.46)" style="fill:#232323"/><path d="M1294.28,232.21V213.46h8.35a4,4,0,0,1,2.92,1.24,4,4,0,0,1,1.23,2.94v1.13a4.47,4.47,0,0,1-1,2.69,3.72,3.72,0,0,1-3.2,1.29h2.08a2,2,0,0,1,1.46.61,2,2,0,0,1,.61,1.49v7.38h-4.15V226a2,2,0,0,0-.61-1.46,2,2,0,0,0-1.49-.61h-2.08v8.33h-4.17Zm4.17-10.42h2.08a2,2,0,0,0,1.49-.61,2,2,0,0,0,.61-1.46v-2.08a2.09,2.09,0,0,0-2.1-2.1h-2.08v6.25Z" transform="translate(-1201.73 -210.46)" style="fill:#232323"/><path d="M1311,232.21V213.46h10.42v2.08h-6.25v6.25h4.17v2.1h-4.17v6.25h6.25v2.08H1311Z" transform="translate(-1201.73 -210.46)" style="fill:#232323"/><path d="M1336,217.63h-2.08q-0.28-2.1-2-2.1a2.31,2.31,0,0,0-1.65.52,2.08,2.08,0,0,0-.55,1.57,2.24,2.24,0,0,0,.6,1.48l4.43,5A4.37,4.37,0,0,1,1336,227v1a4.2,4.2,0,0,1-4.17,4.17h-2.08a3.69,3.69,0,0,1-4.17-4.17h2.1v0.35a1.48,1.48,0,0,0,.65,1.3,2.45,2.45,0,0,0,1.42.45,2.05,2.05,0,0,0,1.59-.54,2.25,2.25,0,0,0,.49-1.56,2.17,2.17,0,0,0-.6-1.48l-4.42-5a4.31,4.31,0,0,1-1.22-2.95v-1a4.2,4.2,0,0,1,4.17-4.17h2.08Q1335.71,213.46,1336,217.63Z" transform="translate(-1201.73 -210.46)" style="fill:#232323"/><path d="M1350.53,217.63h-2.08q-0.28-2.1-2-2.1a2.31,2.31,0,0,0-1.65.52,2.08,2.08,0,0,0-.55,1.57,2.24,2.24,0,0,0,.6,1.48l4.43,5a4.37,4.37,0,0,1,1.22,2.95v1a4.2,4.2,0,0,1-4.17,4.17h-2.08a3.69,3.69,0,0,1-4.17-4.17h2.1v0.35a1.48,1.48,0,0,0,.65,1.3,2.45,2.45,0,0,0,1.42.45,2.05,2.05,0,0,0,1.59-.54,2.25,2.25,0,0,0,.49-1.56,2.17,2.17,0,0,0-.6-1.48l-4.42-5a4.31,4.31,0,0,1-1.22-2.95v-1a4.2,4.2,0,0,1,4.17-4.17h2.08Q1350.28,213.46,1350.53,217.63Z" transform="translate(-1201.73 -210.46)" style="fill:#232323"/><path d="M1360.93,232.21V213.46h10.42v2.08h-6.25v6.25h4.17v2.1h-4.17v6.25h6.25v2.08h-10.42Z" transform="translate(-1201.73 -210.46)" style="fill:#232323"/><path d="M1375.51,232.21V213.46h1L1388,223.88V213.46h2.1v18.75h-1l-11.55-10.42v10.42h-2.1Z" transform="translate(-1201.73 -210.46)" style="fill:#232323"/><path d="M1396.36,232.21V215.53h-4.17v-2.08h12.5v2.08h-4.17v16.67h-4.15Z" transform="translate(-1201.73 -210.46)" style="fill:#232323"/><path d="M1406.76,232.21V213.46h10.42v2.08h-6.25v6.25h4.17v2.1h-4.17v6.25h6.25v2.08h-10.42Z" transform="translate(-1201.73 -210.46)" style="fill:#232323"/><path d="M1421.33,232.21V213.46h8.35a4,4,0,0,1,2.92,1.24,4,4,0,0,1,1.23,2.94v1.13a4.47,4.47,0,0,1-1,2.69,3.72,3.72,0,0,1-3.2,1.29h2.08a2,2,0,0,1,1.46.61,2,2,0,0,1,.61,1.49v7.38h-4.15V226a2,2,0,0,0-.61-1.46,2,2,0,0,0-1.49-.61h-2.08v8.33h-4.17Zm4.17-10.42h2.08a2,2,0,0,0,1.49-.61,2,2,0,0,0,.61-1.46v-2.08a2.09,2.09,0,0,0-2.1-2.1h-2.08v6.25Z" transform="translate(-1201.73 -210.46)" style="fill:#232323"/><path d="M1446.36,232.21V215.53h-4.17v-2.08h12.5v2.08h-4.17v16.67h-4.15Z" transform="translate(-1201.73 -210.46)" style="fill:#232323"/><path d="M1460.93,213.46h4.17a4,4,0,0,1,2.92,1.24,4,4,0,0,1,1.23,2.94V228A4,4,0,0,1,1468,231a4,4,0,0,1-2.92,1.24h-4.17a4.2,4.2,0,0,1-4.17-4.17v-10.4A4.2,4.2,0,0,1,1460.93,213.46Zm0,4.17V228a2,2,0,0,0,.61,1.47,2,2,0,0,0,1.46.63,2,2,0,0,0,1.49-.62,2,2,0,0,0,.61-1.47v-10.4a2.09,2.09,0,0,0-2.1-2.1,2,2,0,0,0-1.46.61A2,2,0,0,0,1460.93,217.63Z" transform="translate(-1201.73 -210.46)" style="fill:#232323"/><path d="M1490.11,217.63H1488q-0.28-2.1-2-2.1a2.31,2.31,0,0,0-1.65.52,2.08,2.08,0,0,0-.55,1.57,2.24,2.24,0,0,0,.6,1.48l4.43,5a4.37,4.37,0,0,1,1.22,2.95v1a4.2,4.2,0,0,1-4.17,4.17h-2.08a3.69,3.69,0,0,1-4.17-4.17h2.1v0.35a1.48,1.48,0,0,0,.65,1.3,2.45,2.45,0,0,0,1.42.45,2.05,2.05,0,0,0,1.59-.54,2.25,2.25,0,0,0,.49-1.56,2.17,2.17,0,0,0-.6-1.48l-4.42-5a4.31,4.31,0,0,1-1.22-2.95v-1a4.2,4.2,0,0,1,4.17-4.17h2.08Q1489.86,213.46,1490.11,217.63Z" transform="translate(-1201.73 -210.46)" style="fill:#232323"/><path d="M1496.36,232.21V215.53h-4.17v-2.08h12.5v2.08h-4.17v16.67h-4.15Z" transform="translate(-1201.73 -210.46)" style="fill:#232323"/><path d="M1506.76,232.21V217.63a4.2,4.2,0,0,1,4.17-4.17h4.17a4,4,0,0,1,2.92,1.24,4,4,0,0,1,1.23,2.94v14.58h-4.15v-8.33h-4.17v8.33h-4.17Zm4.17-10.42h4.17v-4.15a2.09,2.09,0,0,0-2.1-2.1,2,2,0,0,0-1.46.61,2,2,0,0,0-.61,1.49v4.15Z" transform="translate(-1201.73 -210.46)" style="fill:#232323"/><path d="M1523.43,232.21V213.46h8.35a4,4,0,0,1,2.92,1.24,4,4,0,0,1,1.23,2.94v1.13a4.47,4.47,0,0,1-1,2.69,3.72,3.72,0,0,1-3.2,1.29h2.08a2,2,0,0,1,1.46.61,2,2,0,0,1,.61,1.49v7.38h-4.15V226a2,2,0,0,0-.61-1.46,2,2,0,0,0-1.49-.61h-2.08v8.33h-4.17Zm4.17-10.42h2.08a2,2,0,0,0,1.49-.61,2,2,0,0,0,.61-1.46v-2.08a2.09,2.09,0,0,0-2.1-2.1h-2.08v6.25Z" transform="translate(-1201.73 -210.46)" style="fill:#232323"/><path d="M1542.21,232.21V215.53H1538v-2.08h12.5v2.08h-4.17v16.67h-4.15Z" transform="translate(-1201.73 -210.46)" style="fill:#232323"/><path d="M1552.61,226v-2.08H1563V226h-10.42Z" transform="translate(-1201.73 -210.46)" style="fill:#232323"/><path d="M1567.18,226v-2.08h10.42V226h-10.42Z" transform="translate(-1201.73 -210.46)" style="fill:#232323"/><path d="M1581.76,226v-2.08h10.42V226h-10.42Z" transform="translate(-1201.73 -210.46)" style="fill:#232323"/><path d="M1596.33,226v-2.08h10.42V226h-10.42Z" transform="translate(-1201.73 -210.46)" style="fill:#232323"/><path d="M1610.91,226v-2.08h10.42V226h-10.42Z" transform="translate(-1201.73 -210.46)" style="fill:#232323"/><path d="M1625.48,226v-2.08h10.42V226h-10.42Z" transform="translate(-1201.73 -210.46)" style="fill:#232323"/><path d="M1640.05,226v-2.08h10.42V226h-10.42Z" transform="translate(-1201.73 -210.46)" style="fill:#232323"/></g><path d="M1201.73,223v-2.08h10.42V223h-10.42Z" transform="translate(-1201.73 -210.46)" style="fill:#fff"/><path d="M1216.31,223v-2.08h10.42V223h-10.42Z" transform="translate(-1201.73 -210.46)" style="fill:#fff"/><path d="M1230.88,223v-2.08h10.42V223h-10.42Z" transform="translate(-1201.73 -210.46)" style="fill:#fff"/><path d="M1245.46,223v-2.08h10.42V223h-10.42Z" transform="translate(-1201.73 -210.46)" style="fill:#fff"/><path d="M1260,223v-2.08h10.42V223H1260Z" transform="translate(-1201.73 -210.46)" style="fill:#fff"/><path d="M1274.61,229.21V210.46H1283a4,4,0,0,1,2.92,1.24,4,4,0,0,1,1.23,2.94v2.08a4,4,0,0,1-1.23,2.94,4,4,0,0,1-2.92,1.24h-4.17v8.33h-4.17Zm4.17-10.42h2.08a2,2,0,0,0,1.49-.61,2,2,0,0,0,.61-1.46v-2.08a2.09,2.09,0,0,0-2.1-2.1h-2.08v6.25Z" transform="translate(-1201.73 -210.46)" style="fill:#fff"/><path d="M1291.28,229.21V210.46h8.35a4,4,0,0,1,2.92,1.24,4,4,0,0,1,1.23,2.94v1.13a4.47,4.47,0,0,1-1,2.69,3.72,3.72,0,0,1-3.2,1.29h2.08a2,2,0,0,1,1.46.61,2,2,0,0,1,.61,1.49v7.38h-4.15V223a2,2,0,0,0-.61-1.46,2,2,0,0,0-1.49-.61h-2.08v8.33h-4.17Zm4.17-10.42h2.08a2,2,0,0,0,1.49-.61,2,2,0,0,0,.61-1.46v-2.08a2.09,2.09,0,0,0-2.1-2.1h-2.08v6.25Z" transform="translate(-1201.73 -210.46)" style="fill:#fff"/><path d="M1308,229.21V210.46h10.42v2.08h-6.25v6.25h4.17v2.1h-4.17v6.25h6.25v2.08H1308Z" transform="translate(-1201.73 -210.46)" style="fill:#fff"/><path d="M1333,214.63h-2.08q-0.28-2.1-2-2.1a2.31,2.31,0,0,0-1.65.52,2.08,2.08,0,0,0-.55,1.57,2.24,2.24,0,0,0,.6,1.48l4.43,5A4.37,4.37,0,0,1,1333,224v1a4.2,4.2,0,0,1-4.17,4.17h-2.08a3.69,3.69,0,0,1-4.17-4.17h2.1v0.35a1.48,1.48,0,0,0,.65,1.3,2.45,2.45,0,0,0,1.42.45,2.05,2.05,0,0,0,1.59-.54,2.25,2.25,0,0,0,.49-1.56,2.17,2.17,0,0,0-.6-1.48l-4.42-5a4.31,4.31,0,0,1-1.22-2.95v-1a4.2,4.2,0,0,1,4.17-4.17h2.08Q1332.71,210.46,1333,214.63Z" transform="translate(-1201.73 -210.46)" style="fill:#fff"/><path d="M1347.53,214.63h-2.08q-0.28-2.1-2-2.1a2.31,2.31,0,0,0-1.65.52,2.08,2.08,0,0,0-.55,1.57,2.24,2.24,0,0,0,.6,1.48l4.43,5a4.37,4.37,0,0,1,1.22,2.95v1a4.2,4.2,0,0,1-4.17,4.17h-2.08a3.69,3.69,0,0,1-4.17-4.17h2.1v0.35a1.48,1.48,0,0,0,.65,1.3,2.45,2.45,0,0,0,1.42.45,2.05,2.05,0,0,0,1.59-.54,2.25,2.25,0,0,0,.49-1.56,2.17,2.17,0,0,0-.6-1.48l-4.42-5a4.31,4.31,0,0,1-1.22-2.95v-1a4.2,4.2,0,0,1,4.17-4.17h2.08Q1347.28,210.46,1347.53,214.63Z" transform="translate(-1201.73 -210.46)" style="fill:#fff"/><path d="M1357.93,229.21V210.46h10.42v2.08h-6.25v6.25h4.17v2.1h-4.17v6.25h6.25v2.08h-10.42Z" transform="translate(-1201.73 -210.46)" style="fill:#fff"/><path d="M1372.51,229.21V210.46h1L1385,220.88V210.46h2.1v18.75h-1l-11.55-10.42v10.42h-2.1Z" transform="translate(-1201.73 -210.46)" style="fill:#fff"/><path d="M1393.36,229.21V212.53h-4.17v-2.08h12.5v2.08h-4.17v16.67h-4.15Z" transform="translate(-1201.73 -210.46)" style="fill:#fff"/><path d="M1403.76,229.21V210.46h10.42v2.08h-6.25v6.25h4.17v2.1h-4.17v6.25h6.25v2.08h-10.42Z" transform="translate(-1201.73 -210.46)" style="fill:#fff"/><path d="M1418.33,229.21V210.46h8.35a4,4,0,0,1,2.92,1.24,4,4,0,0,1,1.23,2.94v1.13a4.47,4.47,0,0,1-1,2.69,3.72,3.72,0,0,1-3.2,1.29h2.08a2,2,0,0,1,1.46.61,2,2,0,0,1,.61,1.49v7.38h-4.15V223a2,2,0,0,0-.61-1.46,2,2,0,0,0-1.49-.61h-2.08v8.33h-4.17Zm4.17-10.42h2.08a2,2,0,0,0,1.49-.61,2,2,0,0,0,.61-1.46v-2.08a2.09,2.09,0,0,0-2.1-2.1h-2.08v6.25Z" transform="translate(-1201.73 -210.46)" style="fill:#fff"/><path d="M1443.36,229.21V212.53h-4.17v-2.08h12.5v2.08h-4.17v16.67h-4.15Z" transform="translate(-1201.73 -210.46)" style="fill:#fff"/><path d="M1457.93,210.46h4.17a4,4,0,0,1,2.92,1.24,4,4,0,0,1,1.23,2.94V225A4,4,0,0,1,1465,228a4,4,0,0,1-2.92,1.24h-4.17a4.2,4.2,0,0,1-4.17-4.17v-10.4A4.2,4.2,0,0,1,1457.93,210.46Zm0,4.17V225a2,2,0,0,0,.61,1.47,2,2,0,0,0,1.46.63,2,2,0,0,0,1.49-.62,2,2,0,0,0,.61-1.47v-10.4a2.09,2.09,0,0,0-2.1-2.1,2,2,0,0,0-1.46.61A2,2,0,0,0,1457.93,214.63Z" transform="translate(-1201.73 -210.46)" style="fill:#fff"/><path d="M1487.11,214.63H1485q-0.28-2.1-2-2.1a2.31,2.31,0,0,0-1.65.52,2.08,2.08,0,0,0-.55,1.57,2.24,2.24,0,0,0,.6,1.48l4.43,5a4.37,4.37,0,0,1,1.22,2.95v1a4.2,4.2,0,0,1-4.17,4.17h-2.08a3.69,3.69,0,0,1-4.17-4.17h2.1v0.35a1.48,1.48,0,0,0,.65,1.3,2.45,2.45,0,0,0,1.42.45,2.05,2.05,0,0,0,1.59-.54,2.25,2.25,0,0,0,.49-1.56,2.17,2.17,0,0,0-.6-1.48l-4.42-5a4.31,4.31,0,0,1-1.22-2.95v-1a4.2,4.2,0,0,1,4.17-4.17h2.08Q1486.86,210.46,1487.11,214.63Z" transform="translate(-1201.73 -210.46)" style="fill:#fff"/><path d="M1493.36,229.21V212.53h-4.17v-2.08h12.5v2.08h-4.17v16.67h-4.15Z" transform="translate(-1201.73 -210.46)" style="fill:#fff"/><path d="M1503.76,229.21V214.63a4.2,4.2,0,0,1,4.17-4.17h4.17a4,4,0,0,1,2.92,1.24,4,4,0,0,1,1.23,2.94v14.58h-4.15v-8.33h-4.17v8.33h-4.17Zm4.17-10.42h4.17v-4.15a2.09,2.09,0,0,0-2.1-2.1,2,2,0,0,0-1.46.61,2,2,0,0,0-.61,1.49v4.15Z" transform="translate(-1201.73 -210.46)" style="fill:#fff"/><path d="M1520.43,229.21V210.46h8.35a4,4,0,0,1,2.92,1.24,4,4,0,0,1,1.23,2.94v1.13a4.47,4.47,0,0,1-1,2.69,3.72,3.72,0,0,1-3.2,1.29h2.08a2,2,0,0,1,1.46.61,2,2,0,0,1,.61,1.49v7.38h-4.15V223a2,2,0,0,0-.61-1.46,2,2,0,0,0-1.49-.61h-2.08v8.33h-4.17Zm4.17-10.42h2.08a2,2,0,0,0,1.49-.61,2,2,0,0,0,.61-1.46v-2.08a2.09,2.09,0,0,0-2.1-2.1h-2.08v6.25Z" transform="translate(-1201.73 -210.46)" style="fill:#fff"/><path d="M1539.21,229.21V212.53H1535v-2.08h12.5v2.08h-4.17v16.67h-4.15Z" transform="translate(-1201.73 -210.46)" style="fill:#fff"/><path d="M1549.61,223v-2.08H1560V223h-10.42Z" transform="translate(-1201.73 -210.46)" style="fill:#fff"/><path d="M1564.18,223v-2.08h10.42V223h-10.42Z" transform="translate(-1201.73 -210.46)" style="fill:#fff"/><path d="M1578.76,223v-2.08h10.42V223h-10.42Z" transform="translate(-1201.73 -210.46)" style="fill:#fff"/><path d="M1593.33,223v-2.08h10.42V223h-10.42Z" transform="translate(-1201.73 -210.46)" style="fill:#fff"/><path d="M1607.91,223v-2.08h10.42V223h-10.42Z" transform="translate(-1201.73 -210.46)" style="fill:#fff"/><path d="M1622.48,223v-2.08h10.42V223h-10.42Z" transform="translate(-1201.73 -210.46)" style="fill:#fff"/><path d="M1637.05,223v-2.08h10.42V223h-10.42Z" transform="translate(-1201.73 -210.46)" style="fill:#fff"/></g></svg>