<svg xmlns="http://www.w3.org/2000/svg" xmlns:xlink="http://www.w3.org/1999/xlink" viewBox="0 0 742 571"><defs><clipPath id="a" transform="translate(-1833)"><path d="M1909.53,353c-14.73,7-13.1,84,4.1,84h158.7l10.23-7.18,204.75-7.09c14.36,0,14.82-56,0-57.71l-204.16-5.18-9.66-6.85h-164Z" style="fill:none"/></clipPath></defs><title>win-screen-02</title><g style="isolation:isolate"><rect width="742" height="571" style="fill:#fc6e28"/><g style="mix-blend-mode:multiply"><rect x="498.94" y="417.42" width="7.74" height="7.74" style="fill:#232323"/><rect x="514.34" y="417.42" width="7.74" height="7.74" style="fill:#232323"/><rect x="506.68" y="409.82" width="7.74" height="7.74" style="fill:#232323"/><rect x="514.34" y="402.08" width="7.74" height="7.74" style="fill:#232323"/><rect x="522.07" y="394.35" width="7.74" height="7.74" style="fill:#232323"/><rect x="506.7" y="389.71" width="7.74" height="7.74" style="fill:#232323"/><rect x="498.94" y="402.2" width="7.74" height="7.74" style="fill:#232323"/><rect x="491.21" y="394.46" width="7.74" height="7.74" style="fill:#232323"/><rect x="506.6" y="378.41" width="7.74" height="7.74" style="fill:#232323"/><rect x="498.94" y="378.41" width="7.74" height="7.74" style="fill:#232323"/><rect x="491.21" y="376.07" width="7.74" height="7.74" style="fill:#232323"/><rect x="483.55" y="371.86" width="7.74" height="7.74" style="fill:#232323"/><rect x="514.34" y="378.41" width="7.74" height="7.74" style="fill:#232323"/><rect x="522.07" y="376.07" width="7.74" height="7.74" style="fill:#232323"/><rect x="529.81" y="371.86" width="7.74" height="7.74" style="fill:#232323"/></g><rect x="495.94" y="414.42" width="7.74" height="7.74" style="fill:#fdfeff"/><rect x="511.34" y="414.42" width="7.74" height="7.74" style="fill:#fdfeff"/><rect x="503.68" y="406.82" width="7.74" height="7.74" style="fill:#fdfeff"/><rect x="511.34" y="399.08" width="7.74" height="7.74" style="fill:#fdfeff"/><rect x="519.07" y="391.35" width="7.74" height="7.74" style="fill:#fdfeff"/><rect x="503.7" y="386.71" width="7.74" height="7.74" style="fill:#fdfeff"/><rect x="495.94" y="399.2" width="7.74" height="7.74" style="fill:#fdfeff"/><rect x="488.21" y="391.46" width="7.74" height="7.74" style="fill:#fdfeff"/><rect x="503.6" y="375.41" width="7.74" height="7.74" style="fill:#fdfeff"/><rect x="495.94" y="375.41" width="7.74" height="7.74" style="fill:#fdfeff"/><rect x="488.21" y="373.07" width="7.74" height="7.74" style="fill:#fdfeff"/><rect x="480.55" y="368.86" width="7.74" height="7.74" style="fill:#fdfeff"/><rect x="511.34" y="375.41" width="7.74" height="7.74" style="fill:#fdfeff"/><rect x="519.07" y="373.07" width="7.74" height="7.74" style="fill:#fdfeff"/><rect x="526.81" y="368.86" width="7.74" height="7.74" style="fill:#fdfeff"/><rect x="269.33" y="111.67" width="403.61" height="140.85" style="fill:#fff"/><rect x="254.33" y="252.52" width="30" height="30" style="fill:#fff"/><rect x="239.33" y="282.52" width="30" height="30" style="fill:#fff"/><path d="M2197.81,194.09v-12q-6-.72-6-6v-9h6v9a3,3,0,0,0,3,3,2.91,2.91,0,0,0,2.14-.88,2.87,2.87,0,0,0,.88-2.11v-9h6v9q0,5.29-6,6v12h-6Z" transform="translate(-1833)" style="fill:#2061d3"/><path d="M2221.82,173.1h6a6,6,0,0,1,6,6v9a5.81,5.81,0,0,1-1.76,4.23,5.72,5.72,0,0,1-4.21,1.78h-6a6.05,6.05,0,0,1-6-6v-9a5.72,5.72,0,0,1,1.78-4.21A5.81,5.81,0,0,1,2221.82,173.1Zm0,6v9a2.93,2.93,0,0,0,.88,2.12,2.84,2.84,0,0,0,2.11.9,2.88,2.88,0,0,0,2.14-.9,2.93,2.93,0,0,0,.88-2.12v-9A2.88,2.88,0,0,0,2227,177a2.92,2.92,0,0,0-2.14-.88A3,3,0,0,0,2221.82,179.08Z" transform="translate(-1833)" style="fill:#2061d3"/><path d="M2257.82,173.1v21h-6v-3q-0.36,3-3,3h-3a6.05,6.05,0,0,1-6-6v-15h6v15a2.93,2.93,0,0,0,.88,2.12,2.84,2.84,0,0,0,2.11.9,2.88,2.88,0,0,0,2.14-.9,2.93,2.93,0,0,0,.88-2.12v-15h6Z" transform="translate(-1833)" style="fill:#2061d3"/><path d="M2263.83,167.09h6v6q0,5.29-6,6v-3a2.78,2.78,0,0,0,3-3h-3v-6Z" transform="translate(-1833)" style="fill:#2061d3"/><path d="M2281.83,194.09h-6v-21h6v6a7.4,7.4,0,0,1,1.85-4.48,5.62,5.62,0,0,1,4.16-1.49h3v6h-6a2.88,2.88,0,0,0-2.11.88,2.92,2.92,0,0,0-.88,2.14v12Z" transform="translate(-1833)" style="fill:#2061d3"/><path d="M2311.82,185.09h-12v3a2.93,2.93,0,0,0,.88,2.12,2.84,2.84,0,0,0,2.11.9h3q3,0,3-3h3q-0.68,6-6,6h-6a6.05,6.05,0,0,1-6-6v-9a5.72,5.72,0,0,1,1.78-4.21,5.81,5.81,0,0,1,4.23-1.76h6a6,6,0,0,1,6,6v6Zm-12-3h6v-3A2.88,2.88,0,0,0,2305,177a2.92,2.92,0,0,0-2.14-.88,3,3,0,0,0-3,3v3Z" transform="translate(-1833)" style="fill:#2061d3"/><path d="M2329.86,194.09v-18h-3v-3h3v-0.29a5.78,5.78,0,0,1,5.72-5.72h6.26v3h-3.28a2.77,2.77,0,0,0-2.74,2.74v0.29h3v3h-3v18h-6Z" transform="translate(-1833)" style="fill:#2061d3"/><path d="M2344.83,170.08v-3h6v3h-6Zm0,24v-21h6v21h-6Z" transform="translate(-1833)" style="fill:#2061d3"/><path d="M2362.83,194.09h-6v-21h6v6a7.4,7.4,0,0,1,1.85-4.48,5.62,5.62,0,0,1,4.16-1.49h3v6h-6a2.88,2.88,0,0,0-2.11.88,2.92,2.92,0,0,0-.88,2.14v12Z" transform="translate(-1833)" style="fill:#2061d3"/><path d="M2392.82,185.09h-12v3a2.93,2.93,0,0,0,.88,2.12,2.84,2.84,0,0,0,2.11.9h3q3,0,3-3h3q-0.68,6-6,6h-6a6.05,6.05,0,0,1-6-6v-9a5.72,5.72,0,0,1,1.78-4.21,5.81,5.81,0,0,1,4.23-1.76h6a6,6,0,0,1,6,6v6Zm-12-3h6v-3A2.88,2.88,0,0,0,2386,177a2.92,2.92,0,0,0-2.14-.88,3,3,0,0,0-3,3v3Z" transform="translate(-1833)" style="fill:#2061d3"/><path d="M2416.83,194.09h-6v-3q-0.36,3-3,3h-3a6.05,6.05,0,0,1-6-6v-9a5.72,5.72,0,0,1,1.78-4.21,5.81,5.81,0,0,1,4.23-1.76h6v-6h6v27Zm-6-18h-3a3,3,0,0,0-3,3v9a2.93,2.93,0,0,0,.88,2.12,2.84,2.84,0,0,0,2.11.9,2.88,2.88,0,0,0,2.14-.9,2.93,2.93,0,0,0,.88-2.12v-12Z" transform="translate(-1833)" style="fill:#2061d3"/><path d="M1989.27,347.51s17.55-16.57,32.43-16.35c0,0,6.26-5.22,5.17-8.5,0,0,3.79-7.53,2.91-9.06a12.1,12.1,0,0,0-2.15-2.67s5.27,0,5.7-1.49-2.39-5.43-2.39-5.43h6.13s4.16-3.68,3.5-6.08-6.78-16.71-7.44-18.24,3.94-6.17,3.06-8.79,1.31-13.8-6.12-23.21-13.33-22.64-23-26.92-23.84-4.82-29.09-3.72-24.28,2.18-33.47,24.5-5,36.53-5,36.53-4.38,19.91-8.1,30.41Z" transform="translate(-1833)" style="fill:#f2d6b3"/><path d="M2000,339.09c6.27-4.81,19.55-4.42,23.92-10.11a25,25,0,0,0,5.25-14.39c0-2.62-10.94-4.37-10.94-4.37s0.44-4.16,3.72-6.12,7.44,7,9,5.47,1.31-5.47,1.31-5.47-5.91-5-11.81-3.94-8.53,11.16-8.53,11.16-12.25-6.12-15.31-17.28,3.42-24.6,3.42-24.6-21.8,15.42-23.53,20.14,0.86,16.5,3,26.56" transform="translate(-1833)" style="fill:#38210e"/><path d="M1943,264.06s-6.78,16.77-10.5,21.51-6.12,15-9,19.61c0,0,.88-0.44,3.5-3.28s17.5,17.06,17.5,17.06,16.84,8.53,19.69,4.59,13.56-14.44,13.56-14.44l3.09-18.81,4.57-20.89,4.59-20-41.78,6.78Z" transform="translate(-1833)" style="fill:#6b4424"/><path d="M2009,251.81s-7.73,18.81-16.27,28.22,3,18.59,3,18.59a16.87,16.87,0,0,1-14.89-8.31c-5.25-9-9-3.72-7.45-11.16a56.18,56.18,0,0,1,5.35-14.22l1.58-2.84-5,4.16,1.33-4.37-5.68,1.75,9.05-19.69,29-3.72v11.59Z" transform="translate(-1833)" style="fill:#936b47"/><path d="M1936.88,275.43s53.81-30.62,68.47-26.25l28.22,14.87s26.25,3.72,30-10.94l-29.31-9.62s-11.37-16.41-20.56-21.87-37-9.41-46.16-5.25S1933.16,233.21,1936.88,275.43Z" transform="translate(-1833)" style="fill:#2061d3"/><ellipse cx="193.56" cy="277.18" rx="2.63" ry="4.38" style="fill:#0c1328"/><path d="M2029.19,270.4l2.19-3.28s-13.12-5.47-17.5-6.12c0,0,1.53,4.16,3.28,4.7" transform="translate(-1833)" style="fill:#38210e"/><path d="M1909.53,353c-14.73,7-13.1,84,4.1,84h158.7l10.23-7.18,204.75-7.09c14.36,0,14.82-56,0-57.71l-204.16-5.18-9.66-6.85h-164Z" transform="translate(-1833)" style="fill:#55575b"/><g style="clip-path:url(#a)"><polygon points="50.65 408.07 237.6 412.44 249.38 415.5 470 412.15 470 457.65 46.53 510.15 50.65 408.07" style="fill:#34373a"/></g><path d="M1928,332.82s-5.25-25.08,12.83-36.75" transform="translate(-1833)" style="fill:none;stroke:#dd3e31;stroke-miterlimit:10;stroke-width:7px"/><circle cx="1927.98" cy="332.82" r="5.26" transform="translate(-1860.29 402.03) rotate(-11.82)" style="fill:#dd3e31"/><circle cx="1940.81" cy="296.07" r="5.26" transform="matrix(0.84, -0.54, 0.54, 0.84, -1683.54, 1099.47)" style="fill:#dd3e31"/><path d="M1942,332.82s-5.25-25.08,12.83-36.75" transform="translate(-1833)" style="fill:none;stroke:#dd3e31;stroke-miterlimit:10;stroke-width:7px"/><circle cx="1941.98" cy="332.82" r="5.26" transform="translate(-1859.99 404.9) rotate(-11.82)" style="fill:#dd3e31"/><circle cx="1954.81" cy="296.07" r="5.26" transform="matrix(0.84, -0.54, 0.54, 0.84, -1681.31, 1107.06)" style="fill:#dd3e31"/><polygon points="142.92 325 78 325 78 373.65 176.98 360.7 142.92 325" style="fill:#55575b"/><path d="M2010,360.52l-84.95-.87h0a14,14,0,0,0-14,14l7.08,84.33a36.52,36.52,0,0,0,35.43,27.67h39.51a37.51,37.51,0,0,0,37.51-37l0.78-54Z" transform="translate(-1833)" style="fill:#55575b"/><line x1="140.48" y1="450.07" x2="80.67" y2="390.26" style="fill:none;stroke:#8c5b1f;stroke-miterlimit:10;stroke-width:14px"/><line x1="140.48" y1="450.07" x2="55.9" y2="450.07" style="fill:none;stroke:#8c5b1f;stroke-miterlimit:10;stroke-width:14px"/><line x1="140.48" y1="450.07" x2="80.67" y2="509.88" style="fill:none;stroke:#8c5b1f;stroke-miterlimit:10;stroke-width:14px"/><line x1="140.48" y1="450.07" x2="140.48" y2="534.65" style="fill:none;stroke:#8c5b1f;stroke-miterlimit:10;stroke-width:14px"/><line x1="140.48" y1="450.07" x2="200.29" y2="509.88" style="fill:none;stroke:#8c5b1f;stroke-miterlimit:10;stroke-width:14px"/><line x1="140.48" y1="450.07" x2="225.06" y2="450.07" style="fill:none;stroke:#8c5b1f;stroke-miterlimit:10;stroke-width:14px"/><line x1="140.48" y1="450.07" x2="200.29" y2="390.26" style="fill:none;stroke:#8c5b1f;stroke-miterlimit:10;stroke-width:14px"/><line x1="140.48" y1="450.07" x2="140.48" y2="365.48" style="fill:none;stroke:#8c5b1f;stroke-miterlimit:10;stroke-width:14px"/><path d="M1973.48,373.65a76.42,76.42,0,1,1-76.42,76.42,76.5,76.5,0,0,1,76.42-76.42m0-21a97.42,97.42,0,1,0,97.42,97.42,97.42,97.42,0,0,0-97.42-97.42h0Z" transform="translate(-1833)" style="fill:#b57d33"/><circle cx="140.48" cy="450.07" r="18.77" style="fill:#e5a04c"/><path d="M2103.49,36h6V60h3a2.88,2.88,0,0,0,2.14-.9,2.93,2.93,0,0,0,.88-2.12V36h6V60h3a2.85,2.85,0,0,0,2.11-.9,2.93,2.93,0,0,0,.88-2.12V36h6V52.74A10.29,10.29,0,0,1,2123.25,63h-7.74V62.06a8.82,8.82,0,0,1-4.25.94h-7.78V36Z" transform="translate(-1833)" style="fill:#fff"/><path d="M2142.51,63V36h6V63h-6Z" transform="translate(-1833)" style="fill:#fff"/><path d="M2157.49,63V36h1.4l16.6,15V36h3V63h-1.37l-16.63-15V63h-3Z" transform="translate(-1833)" style="fill:#fff"/><path d="M2184.49,63V36h1.4l16.6,15V36h3V63h-1.37l-16.63-15V63h-3Z" transform="translate(-1833)" style="fill:#fff"/><path d="M2211.49,63V36h15v3h-9v9h6v3h-6v9h9v3h-15Z" transform="translate(-1833)" style="fill:#fff"/><path d="M2232.48,63V36h12a5.72,5.72,0,0,1,4.21,1.78,5.81,5.81,0,0,1,1.76,4.23v1.62a6.43,6.43,0,0,1-1.37,3.87q-1.37,1.85-4.61,1.85h3a2.88,2.88,0,0,1,2.11.88,2.92,2.92,0,0,1,.88,2.14V63h-6V54a2.88,2.88,0,0,0-.88-2.11,2.92,2.92,0,0,0-2.14-.88h-3V63h-6Zm6-15h3a2.91,2.91,0,0,0,2.14-.88,2.87,2.87,0,0,0,.88-2.11V42a3,3,0,0,0-3-3h-3v9Z" transform="translate(-1833)" style="fill:#fff"/><path d="M2259.51,54V36h6V54h-6Zm0,9V57h6v6h-6Z" transform="translate(-1833)" style="fill:#fff"/><path d="M2277.51,54V36h6V54h-6Zm0,9V57h6v6h-6Z" transform="translate(-1833)" style="fill:#fff"/><path d="M2295.51,54V36h6V54h-6Zm0,9V57h6v6h-6Z" transform="translate(-1833)" style="fill:#fff"/></g></svg>